<svg xmlns="http://www.w3.org/2000/svg" width="16" height="16" viewBox="0 0 16 16"><g transform="translate(-140 -1494)"><rect width="16" height="16" transform="translate(140 1494)" fill="none"/><path d="M825.194,451.439a1.786,1.786,0,0,1,1.355-.167,1.828,1.828,0,0,1,.538.264c.155.1.332.243.538.4l.03.023c.206.161.383.3.522.424a1.817,1.817,0,0,1,.386.457,1.786,1.786,0,0,1,.167,1.355,1.822,1.822,0,0,1-.263.538c-.1.155-.243.332-.4.538l-4.224,5.411-.031.04a3.942,3.942,0,0,1-.533.6,2.385,2.385,0,0,1-.517.335,4.021,4.021,0,0,1-.77.24l-.05.012-1.264.312c-.087.022-.187.046-.275.06a.912.912,0,0,1-.419-.025.873.873,0,0,1-.611-.779c-.008-.089-.009-.192-.009-.282v-.017l0-1.285c0-.017,0-.035,0-.051a4.044,4.044,0,0,1,.046-.805,2.377,2.377,0,0,1,.2-.583,3.975,3.975,0,0,1,.457-.664l.031-.041,4.224-5.411c.161-.206.3-.383.423-.522A1.821,1.821,0,0,1,825.194,451.439Zm1.038.979a.6.6,0,0,0-.451.056.678.678,0,0,0-.159.145c-.094.105-.208.25-.383.475l1.875,1.464c.175-.225.288-.37.367-.487a.688.688,0,0,0,.1-.189.6.6,0,0,0-.056-.451.68.68,0,0,0-.145-.158c-.105-.095-.25-.208-.475-.384s-.371-.288-.487-.368A.693.693,0,0,0,826.232,452.418Zm.15,3.078-1.875-1.464-3.48,4.459a3.39,3.39,0,0,0-.36.5,1.185,1.185,0,0,0-.1.291,3.348,3.348,0,0,0-.023.617l0,1.137,1.1-.272a3.428,3.428,0,0,0,.592-.171,1.207,1.207,0,0,0,.259-.168,3.4,3.4,0,0,0,.4-.471Z" transform="translate(-676.354 1044.793)" fill="#888" fill-rule="evenodd"/></g></svg>