<svg xmlns="http://www.w3.org/2000/svg" width="20" height="20" viewBox="0 0 20 20"><g transform="translate(-12436 -472)"><rect width="20" height="20" transform="translate(12436 472)" fill="none"/><path d="M825.864,451.466a1.99,1.99,0,0,1,1.511-.186,2.036,2.036,0,0,1,.6.294c.172.117.37.271.6.45l.034.026c.229.179.427.333.582.473a2.026,2.026,0,0,1,.43.51,1.99,1.99,0,0,1,.186,1.511,2.028,2.028,0,0,1-.294.6c-.117.173-.271.371-.45.6l-4.709,6.032-.035.045a4.392,4.392,0,0,1-.595.674,2.657,2.657,0,0,1-.577.374,4.484,4.484,0,0,1-.858.268l-.056.014-1.409.347c-.1.025-.209.052-.307.067a1.017,1.017,0,0,1-.467-.028.972.972,0,0,1-.682-.868c-.009-.1-.01-.214-.01-.314v-.019l0-1.433c0-.019,0-.038,0-.057a4.51,4.51,0,0,1,.052-.9,2.65,2.65,0,0,1,.223-.65,4.431,4.431,0,0,1,.509-.74l.035-.046,4.709-6.032c.179-.229.333-.427.472-.582A2.028,2.028,0,0,1,825.864,451.466Zm1.157,1.091a.663.663,0,0,0-.5.062.758.758,0,0,0-.177.162c-.1.117-.231.279-.427.53l2.09,1.631c.2-.251.322-.412.41-.543a.765.765,0,0,0,.115-.211.664.664,0,0,0-.062-.5.757.757,0,0,0-.162-.176c-.117-.105-.279-.232-.53-.428s-.413-.322-.543-.41A.774.774,0,0,0,827.021,452.557Zm.167,3.431-2.09-1.631-3.879,4.97a3.775,3.775,0,0,0-.4.558,1.322,1.322,0,0,0-.111.325,3.728,3.728,0,0,0-.025.687l0,1.267,1.231-.3a3.828,3.828,0,0,0,.66-.191,1.346,1.346,0,0,0,.288-.187,3.783,3.783,0,0,0,.444-.525Zm-2.1,7.015a.663.663,0,0,1,.663-.663h4.64a.663.663,0,1,1,0,1.326h-4.64A.663.663,0,0,1,825.085,463Z" transform="translate(11620.646 24.293)" fill="#888" fill-rule="evenodd"/></g></svg>