<svg xmlns="http://www.w3.org/2000/svg" xmlns:xlink="http://www.w3.org/1999/xlink" width="36" height="36" viewBox="0 0 36 36"><defs><linearGradient id="a" x1="0.325" y1="0.133" x2="0.781" y2="0.905" gradientUnits="objectBoundingBox"><stop offset="0" stop-color="#40b1f8"/><stop offset="1" stop-color="#3e8bf3"/></linearGradient><filter id="b"><feOffset dx="-1" dy="-1" input="SourceAlpha"/><feGaussianBlur stdDeviation="1" result="c"/><feFlood flood-color="#d4e7f3" result="d"/><feComposite operator="out" in="SourceGraphic" in2="c"/><feComposite operator="in" in="d"/><feComposite operator="in" in2="SourceGraphic"/></filter></defs><g transform="translate(18802 -1460)"><rect width="36" height="36" transform="translate(-18802 1460)" fill="red" opacity="0"/><g transform="translate(-18799.75 1462.25)"><circle cx="16" cy="16" r="16" transform="translate(-0.251 -0.25)" fill="url(#a)"/><g transform="translate(7.946 6.951)"><g data-type="innerShadowGroup"><path d="M15.8,22.6a.444.444,0,0,1-.059,0A8.882,8.882,0,0,1,8,13.8V7.934a.572.572,0,0,1,.555-.564A13.5,13.5,0,0,0,15.476,5.1a.593.593,0,0,1,.66,0,13.34,13.34,0,0,0,5.136,2.07,13.562,13.562,0,0,0,1.786.2.57.57,0,0,1,.552.564V13.8a8.882,8.882,0,0,1-7.746,8.793C15.845,22.593,15.824,22.6,15.8,22.6Z" transform="translate(-8 -5)" fill="#fff"/><g transform="matrix(1, 0, 0, 1, -10.2, -9.2)" filter="url(#b)"><path d="M15.8,22.6a.444.444,0,0,1-.059,0A8.882,8.882,0,0,1,8,13.8V7.934a.572.572,0,0,1,.555-.564A13.5,13.5,0,0,0,15.476,5.1a.593.593,0,0,1,.66,0,13.34,13.34,0,0,0,5.136,2.07,13.562,13.562,0,0,0,1.786.2.57.57,0,0,1,.552.564V13.8a8.882,8.882,0,0,1-7.746,8.793C15.845,22.593,15.824,22.6,15.8,22.6Z" transform="translate(2.2 4.2)" fill="#fff"/></g></g><path d="M10.562,15.188a1.8,1.8,0,1,0-1.8-1.8A1.8,1.8,0,0,0,10.562,15.188Z" transform="translate(-2.758 -6.389)" fill="#227de9"/><rect width="1.35" height="4.5" rx="0.675" transform="translate(7.131 7.899)" fill="#227de9"/></g></g></g></svg>