<svg xmlns="http://www.w3.org/2000/svg" width="20.973" height="12.789" viewBox="0 0 20.973 12.789"><g transform="translate(0.25 0.249)"><path d="M1.139,7.372h19a.75.75,0,0,1,0,1.5h-19a.75.75,0,0,1,0-1.5Z" transform="translate(-0.166 -1.976)"/><path d="M.5,6.9a.75.75,0,0,1-.53-1.28L5.614-.029A.75.75,0,1,1,6.675,1.031L1.03,6.676A.748.748,0,0,1,.5,6.9Z" transform="translate(0 0)"/><path d="M6.145,14.516a.748.748,0,0,1-.53-.22L-.029,8.652A.75.75,0,1,1,1.031,7.592l5.644,5.644a.75.75,0,0,1-.53,1.28Z" transform="translate(0 -1.976)"/></g></svg>