<svg xmlns="http://www.w3.org/2000/svg" xmlns:xlink="http://www.w3.org/1999/xlink" width="40" height="40" viewBox="0 0 40 40"><defs><filter id="a"><feOffset dx="-1" dy="-1" input="SourceAlpha"/><feGaussianBlur stdDeviation="2" result="b"/><feFlood flood-opacity="0.161" result="c"/><feComposite operator="out" in="SourceGraphic" in2="b"/><feComposite operator="in" in="c"/><feComposite operator="in" in2="SourceGraphic"/></filter><filter id="d"><feOffset dx="-1" dy="-1" input="SourceAlpha"/><feGaussianBlur stdDeviation="1" result="e"/><feFlood flood-color="#4b5db4" result="f"/><feComposite operator="out" in="SourceGraphic" in2="e"/><feComposite operator="in" in="f"/><feComposite operator="in" in2="SourceGraphic"/></filter><filter id="g" x="20" y="17" width="17" height="17" filterUnits="userSpaceOnUse"><feOffset dx="-2" dy="-2" input="SourceAlpha"/><feGaussianBlur stdDeviation="1" result="h"/><feFlood flood-color="#eba120" flood-opacity="0.502" result="i"/><feComposite operator="out" in="SourceGraphic" in2="h"/><feComposite operator="in" in="i"/><feComposite operator="in" in2="SourceGraphic"/></filter></defs><g transform="translate(-38 -20)"><rect width="40" height="40" transform="translate(38 20)" fill="#ff4646" opacity="0"/><g transform="translate(-1)"><g transform="translate(38.954 19.918)"><g data-type="innerShadowGroup"><rect width="28" height="23" rx="4" transform="translate(5.046 7.082)" fill="#f5f5f8"/><g transform="matrix(1, 0, 0, 1, 0.05, 0.08)" filter="url(#a)"><rect width="28" height="23" rx="4" transform="translate(5 7)" fill="#fff"/></g></g><g data-type="innerShadowGroup"><path d="M4,0H24a4,4,0,0,1,4,4V8a0,0,0,0,1,0,0H0A0,0,0,0,1,0,8V4A4,4,0,0,1,4,0Z" transform="translate(5.046 7.082)" fill="#5c73e9"/><g transform="matrix(1, 0, 0, 1, 0.05, 0.08)" filter="url(#d)"><path d="M4,0H24a4,4,0,0,1,4,4V8a0,0,0,0,1,0,0H0A0,0,0,0,1,0,8V4A4,4,0,0,1,4,0Z" transform="translate(5 7)" fill="#fff"/></g></g></g><g transform="translate(-0.928 4.156)"><g data-type="innerShadowGroup"><circle cx="8.5" cy="8.5" r="8.5" transform="translate(76.928 32.844) rotate(90)" fill="#ffcb58"/><g transform="matrix(1, 0, 0, 1, 39.93, 15.84)" filter="url(#g)"><circle cx="8.5" cy="8.5" r="8.5" transform="translate(37 17) rotate(90)" fill="#fff"/></g></g><path d="M67.928,36.164v4.647h3.906" transform="translate(0.5 0.884)" fill="none" stroke="#fff" stroke-linecap="round" stroke-linejoin="round" stroke-width="1.5"/></g></g></g></svg>