<svg xmlns="http://www.w3.org/2000/svg" xmlns:xlink="http://www.w3.org/1999/xlink" width="40" height="40" viewBox="0 0 40 40"><defs><clipPath id="a"><rect width="24" height="28" rx="1" transform="translate(42 28)" fill="#eaf6ff"/></clipPath><linearGradient id="b" x1="0.255" y1="-0.053" x2="0.766" y2="1.108" gradientUnits="objectBoundingBox"><stop offset="0" stop-color="#a8d6ff"/><stop offset="1" stop-color="#70bbff"/></linearGradient><filter id="c"><feOffset dx="-1" dy="-1" input="SourceAlpha"/><feGaussianBlur stdDeviation="2" result="d"/><feFlood flood-color="#549ddf" result="e"/><feComposite operator="out" in="SourceGraphic" in2="d"/><feComposite operator="in" in="e"/><feComposite operator="in" in2="SourceGraphic"/></filter></defs><g transform="translate(-36 -20)"><rect width="40" height="40" transform="translate(36 20)" fill="#ff4b4b" opacity="0"/><g transform="translate(0 1)"><rect width="32" height="5" rx="2.5" transform="translate(40 26)" fill="#5050c6"/><g transform="translate(2)" clip-path="url(#a)"><g data-type="innerShadowGroup"><path d="M1,0H23a1,1,0,0,1,1,1V28a0,0,0,0,1,0,0H0a0,0,0,0,1,0,0V1A1,1,0,0,1,1,0Z" transform="translate(42 28)" fill="url(#b)"/><g transform="matrix(1, 0, 0, 1, 34, 19)" filter="url(#c)"><path d="M1,0H23a1,1,0,0,1,1,1V28a0,0,0,0,1,0,0H0a0,0,0,0,1,0,0V1A1,1,0,0,1,1,0Z" transform="translate(8 9)" fill="#fff"/></g></g><rect width="7" height="1.6" rx="0.8" transform="translate(46 33)" fill="#fff"/><rect width="16" height="1.6" rx="0.8" transform="translate(46 37)" fill="#fff"/><rect width="16" height="1.6" rx="0.8" transform="translate(46 41)" fill="#fff"/><path d="M42.675,1.684,40.657,0,38.638,1.684,36.619,0,34.6,1.684,32.582,0,30.564,1.684,28.545,0,26.526,1.684,24.508,0,22.489,1.684,20.47,0,18.452,1.684,16.433,0,14.415,1.684,12.4,0,10.377,1.684c-2.023,5.788,4.237,8.9-.377,8.9H42.7Z" transform="translate(27.317 51.705)" fill="#fff"/></g></g></g></svg>