<svg xmlns="http://www.w3.org/2000/svg" xmlns:xlink="http://www.w3.org/1999/xlink" width="40" height="40" viewBox="0 0 40 40"><defs><linearGradient id="a" x1="0.174" y1="0.166" x2="0.793" y2="0.941" gradientUnits="objectBoundingBox"><stop offset="0" stop-color="#80eb7a"/><stop offset="1" stop-color="#56ba44"/></linearGradient><filter id="b"><feOffset dx="-10" dy="-10" input="SourceAlpha"/><feGaussianBlur stdDeviation="5" result="c"/><feFlood flood-color="#4ea523" flood-opacity="0.2" result="d"/><feComposite operator="out" in="SourceGraphic" in2="c"/><feComposite operator="in" in="d"/><feComposite operator="in" in2="SourceGraphic"/></filter></defs><g transform="translate(-129.978 -192)"><g transform="translate(129.979 192)"><rect width="40" height="40" rx="20" transform="translate(-0.001)" fill="#fff" opacity="0"/><g transform="translate(1.844 1.862)"><g transform="translate(0)"><path d="M3.816.63A.944.944,0,0,1,5.6.63L9.214,7.651c.5.978-.011,2.323-.89,2.323H1.088C.209,9.974-.306,8.629.2,7.651Z" transform="translate(6.655 35.736) rotate(-135)" fill="#67ce58"/><g data-type="innerShadowGroup"><circle cx="17.576" cy="17.576" r="17.576" transform="translate(1.108)" fill="url(#a)"/><g transform="matrix(1, 0, 0, 1, -1.84, -1.86)" filter="url(#b)"><circle cx="17.576" cy="17.576" r="17.576" transform="translate(2.95 1.86)" fill="#fff"/></g></g><path d="M11.085,16.252A2.332,2.332,0,1,0,8.762,13.92,2.328,2.328,0,0,0,11.085,16.252Z" transform="translate(0.3 3.656)" fill="#fff"/><path d="M11.085,16.252A2.332,2.332,0,1,0,8.762,13.92,2.328,2.328,0,0,0,11.085,16.252Z" transform="translate(7.6 3.656)" fill="#fff"/><path d="M11.085,16.252A2.332,2.332,0,1,0,8.762,13.92,2.328,2.328,0,0,0,11.085,16.252Z" transform="translate(14.602 3.656)" fill="#fff"/></g></g></g></g></svg>