<svg xmlns="http://www.w3.org/2000/svg" xmlns:xlink="http://www.w3.org/1999/xlink" width="56" height="56" viewBox="0 0 56 56"><defs><linearGradient id="a" x1="0.094" y1="0.047" x2="1" y2="1.05" gradientUnits="objectBoundingBox"><stop offset="0" stop-color="#5c95ff"/><stop offset="1" stop-color="#4747d8"/></linearGradient><filter id="b"><feOffset dx="-1" dy="-1" input="SourceAlpha"/><feGaussianBlur stdDeviation="1" result="c"/><feFlood flood-opacity="0.161" result="d"/><feComposite operator="out" in="SourceGraphic" in2="c"/><feComposite operator="in" in="d"/><feComposite operator="in" in2="SourceGraphic"/></filter><filter id="e"><feOffset dx="-0.5" dy="-0.5" input="SourceAlpha"/><feGaussianBlur stdDeviation="0.75" result="f"/><feFlood flood-color="#e3e3e3" flood-opacity="0.502" result="g"/><feComposite operator="out" in="SourceGraphic" in2="f"/><feComposite operator="in" in="g"/><feComposite operator="in" in2="SourceGraphic"/></filter></defs><g transform="translate(-206 -1186)"><rect width="56" height="56" transform="translate(206 1186)" fill="#fff" opacity="0"/><g transform="translate(214.162 1192.676)"><g transform="translate(0.066 0.67)"><g data-type="innerShadowGroup"><rect width="40" height="41" rx="5" transform="translate(-0.229 -0.346)" opacity="0.8" fill="url(#a)"/><g transform="matrix(1, 0, 0, 1, -8.23, -7.35)" filter="url(#b)"><rect width="40" height="41" rx="5" transform="translate(8 7)" fill="#fff" opacity="0.8"/></g></g><rect width="18.324" height="3.054" rx="1.527" transform="translate(5.435 5.641)" fill="#fff" opacity="0.5"/><rect width="25.959" height="3.054" rx="1.527" transform="translate(5.435 13.276)" fill="#fff" opacity="0.5"/><rect width="12.216" height="3.054" rx="1.527" transform="translate(5.435 20.911)" fill="#fff" opacity="0.5"/><g data-type="innerShadowGroup"><path d="M7.035,14.073a1.919,1.919,0,0,1-1.326-.537l-4.576-4.4A1.978,1.978,0,0,1,1.06,6.364a1.9,1.9,0,0,1,2.685-.106l.032.03L6.955,9.346,14.3,1.469a1.9,1.9,0,0,1,2.686-.107l.031.031a1.978,1.978,0,0,1,.073,2.767l-8.669,9.3a1.908,1.908,0,0,1-1.389.615Z" transform="translate(17.883 21.71)" fill="#fff"/><g transform="matrix(1, 0, 0, 1, -8.23, -7.35)" filter="url(#e)"><path d="M7.035,14.073a1.919,1.919,0,0,1-1.326-.537l-4.576-4.4A1.978,1.978,0,0,1,1.06,6.364a1.9,1.9,0,0,1,2.685-.106l.032.03L6.955,9.346,14.3,1.469a1.9,1.9,0,0,1,2.686-.107l.031.031a1.978,1.978,0,0,1,.073,2.767l-8.669,9.3a1.908,1.908,0,0,1-1.389.615Z" transform="translate(26.11 29.06)" fill="#fff"/></g></g></g></g></g></svg>