<svg xmlns="http://www.w3.org/2000/svg" width="32" height="32" viewBox="0 0 32 32"><g transform="translate(-261 -1553)"><rect width="32" height="32" transform="translate(261 1553)" fill="none"/><g transform="translate(265.096 1557.871)"><path d="M21.444,15.136a17.315,17.315,0,0,0-3.623-2.448c-1.556-.784-2.458-.927-4,.22l-.212.159H13.6a8.055,8.055,0,0,1-1.969-1.45,8.465,8.465,0,0,1-1.492-2l.168-.224c1.179-1.6.859-2.6.237-3.933a15.775,15.775,0,0,0-2.485-3.67A2.686,2.686,0,0,0,4.8.943L4.7.986a8.769,8.769,0,0,0-1.425.76,5.239,5.239,0,0,0-2.022,2.2C.764,5,.544,6.923,2.3,10.106a23.712,23.712,0,0,0,4.644,6.17,25.521,25.521,0,0,0,6.168,4.614,9.276,9.276,0,0,0,4.368,1.446,4.221,4.221,0,0,0,1.813-.4A5.3,5.3,0,0,0,21.5,19.917a8.62,8.62,0,0,0,.763-1.424l.04-.093a2.681,2.681,0,0,0-.864-3.261" transform="translate(-0.199)" fill="#3182f7"/><path d="M6.945,2.062c.443-.286,1.53.609,2.429,2s1.269,2.75.826,3.036-1.53-.609-2.429-2S6.5,2.348,6.945,2.062Z" transform="translate(-0.199)" fill="#2a6bc9"/><path d="M15.977,13.278c.278-.448,1.643-.1,3.051.77s2.323,1.941,2.046,2.39-1.644.1-3.051-.77-2.323-1.942-2.046-2.39" transform="translate(-0.199)" fill="#2a6bc9"/></g></g></svg>