<svg xmlns="http://www.w3.org/2000/svg" xmlns:xlink="http://www.w3.org/1999/xlink" width="36" height="36" viewBox="0 0 36 36"><defs><linearGradient id="a" x1="0.066" y1="0.05" x2="1.159" y2="1.177" gradientUnits="objectBoundingBox"><stop offset="0" stop-color="#9af0cf"/><stop offset="1" stop-color="#45ce98"/></linearGradient><filter id="b"><feOffset dx="-1" dy="-1" input="SourceAlpha"/><feGaussianBlur stdDeviation="1" result="c"/><feFlood flood-opacity="0.161" result="d"/><feComposite operator="out" in="SourceGraphic" in2="c"/><feComposite operator="in" in="d"/><feComposite operator="in" in2="SourceGraphic"/></filter><filter id="e"><feOffset dx="-1" dy="-1" input="SourceAlpha"/><feGaussianBlur stdDeviation="0.5" result="f"/><feFlood flood-opacity="0.149" result="g"/><feComposite operator="out" in="SourceGraphic" in2="f"/><feComposite operator="in" in="g"/><feComposite operator="in" in2="SourceGraphic"/></filter><filter id="h"><feOffset dx="-1" dy="-1" input="SourceAlpha"/><feGaussianBlur stdDeviation="0.5" result="i"/><feFlood flood-opacity="0.149" result="j"/><feComposite operator="out" in="SourceGraphic" in2="i"/><feComposite operator="in" in="j"/><feComposite operator="in" in2="SourceGraphic"/></filter></defs><g transform="translate(18802 -1460)"><rect width="36" height="36" transform="translate(-18802 1460)" fill="red" opacity="0"/><g transform="translate(0 0.5)"><g data-type="innerShadowGroup"><rect width="28" height="29" rx="5" transform="translate(-18798 1462)" opacity="0.8" fill="url(#a)"/><g transform="matrix(1, 0, 0, 1, -18802, 1459.5)" filter="url(#b)"><rect width="28" height="29" rx="5" transform="translate(4 2.5)" fill="#fff" opacity="0.8"/></g></g><rect width="11" height="2" rx="1" transform="translate(-18794.389 1466.085)" fill="#fff" opacity="0.8"/><rect width="7" height="2" rx="1" transform="translate(-18794.389 1470.085)" fill="#fff" opacity="0.8"/><rect width="7" height="2" rx="1" transform="translate(-18794.389 1474.085)" fill="#fff" opacity="0.8"/><g data-type="innerShadowGroup"><path d="M2.861.98A14.751,14.751,0,0,1,8.655.009a14.762,14.762,0,0,1,5.793.972,4.245,4.245,0,0,1,2.86,3.9,3,3,0,0,1-.436,1.627A3.427,3.427,0,0,1,15.32,7.779c-1.308.592-3.4.888-6.666.888s-5.358-.3-6.666-.888A3.425,3.425,0,0,1,.437,6.5,3,3,0,0,1,0,4.875,4.247,4.247,0,0,1,2.861.98" transform="translate(-18786.654 1482.533)" fill="#4db18a" fill-rule="evenodd"/><g transform="matrix(1, 0, 0, 1, -18802, 1459.5)" filter="url(#e)"><path d="M2.861.98A14.751,14.751,0,0,1,8.655.009a14.762,14.762,0,0,1,5.793.972,4.245,4.245,0,0,1,2.86,3.9,3,3,0,0,1-.436,1.627A3.427,3.427,0,0,1,15.32,7.779c-1.308.592-3.4.888-6.666.888s-5.358-.3-6.666-.888A3.425,3.425,0,0,1,.437,6.5,3,3,0,0,1,0,4.875,4.247,4.247,0,0,1,2.861.98" transform="translate(15.35 23.03)" fill="#fff" fill-rule="evenodd"/></g></g><g data-type="innerShadowGroup"><path d="M0,5.141a5.141,5.141,0,1,1,5.141,5.141A5.142,5.142,0,0,1,0,5.141" transform="translate(-18783.088 1471.8)" fill="#4db18a" fill-rule="evenodd"/><g transform="matrix(1, 0, 0, 1, -18802, 1459.5)" filter="url(#h)"><path d="M0,5.141a5.141,5.141,0,1,1,5.141,5.141A5.142,5.142,0,0,1,0,5.141" transform="translate(18.91 12.3)" fill="#fff" fill-rule="evenodd"/></g></g></g></g></svg>