<svg xmlns="http://www.w3.org/2000/svg" xmlns:xlink="http://www.w3.org/1999/xlink" width="32" height="32" viewBox="0 0 32 32"><defs><linearGradient id="a" x1="0.198" y1="0.148" x2="0.894" y2="0.905" gradientUnits="objectBoundingBox"><stop offset="0" stop-color="#3182f7"/><stop offset="1" stop-color="#2a6bc9"/></linearGradient><filter id="b" x="9.221" y="8.157" width="16.855" height="16.855" filterUnits="userSpaceOnUse"><feOffset dx="1" dy="1" input="SourceAlpha"/><feGaussianBlur stdDeviation="1" result="c"/><feFlood flood-opacity="0.102"/><feComposite operator="in" in2="c"/><feComposite in="SourceGraphic"/></filter></defs><g transform="translate(-129.979 -192)"><g transform="translate(129.96 192)"><rect width="32" height="32" transform="translate(0.019)" fill="#ffbcbc" opacity="0"/><circle cx="10.036" cy="10.036" r="10.036" transform="translate(6.49 5.475)" fill="url(#a)"/><g transform="matrix(1, 0, 0, 1, 0.02, 0)" filter="url(#b)"><path d="M9.179,7.015a.956.956,0,0,0-.713-.321.842.842,0,0,0-.566.26c-.3.3-.864.707-1.158.62A17.179,17.179,0,0,1,4.966,5.9L4.957,5.89A17.268,17.268,0,0,1,3.281,4.114c-.086-.295.317-.863.621-1.159a.842.842,0,0,0,.259-.566.953.953,0,0,0-.321-.713L2.488.325A.966.966,0,0,0,1.2.18L1.187.193A3.188,3.188,0,0,0,0,2.636c-.031,2.5,2.647,5.022,2.892,5.247l.022.025a.325.325,0,0,0,.033.033l.016.014c.17.186,2.7,2.9,5.212,2.9H8.22a3.188,3.188,0,0,0,2.442-1.186l.014-.017a.967.967,0,0,0-.145-1.284Z" transform="translate(11.22 10.16)" fill="#fff"/></g></g></g></svg>