<svg xmlns="http://www.w3.org/2000/svg" xmlns:xlink="http://www.w3.org/1999/xlink" width="40" height="40" viewBox="0 0 40 40"><defs><filter id="a"><feOffset dx="-1" dy="-1" input="SourceAlpha"/><feGaussianBlur stdDeviation="2" result="b"/><feFlood flood-opacity="0.161" result="c"/><feComposite operator="out" in="SourceGraphic" in2="b"/><feComposite operator="in" in="c"/><feComposite operator="in" in2="SourceGraphic"/></filter><filter id="d"><feOffset dx="-2" dy="-2" input="SourceAlpha"/><feGaussianBlur stdDeviation="1" result="e"/><feFlood flood-color="#1f45c3" flood-opacity="0.502" result="f"/><feComposite operator="out" in="SourceGraphic" in2="e"/><feComposite operator="in" in="f"/><feComposite operator="in" in2="SourceGraphic"/></filter></defs><g transform="translate(-38 -20)"><rect width="40" height="40" transform="translate(38 20)" fill="#ff4646" opacity="0"/><g transform="translate(-1)"><g transform="translate(38.954 19.918)"><g data-type="innerShadowGroup"><rect width="28" height="23" rx="4" transform="translate(5.046 7.082)" fill="#7db9fc"/><g transform="matrix(1, 0, 0, 1, 0.05, 0.08)" filter="url(#a)"><rect width="28" height="23" rx="4" transform="translate(5 7)" fill="#fff"/></g></g><rect width="28" height="2.2" transform="translate(5.046 13.278)" fill="#fff"/></g><g transform="translate(-0.764 4.249)"><g data-type="innerShadowGroup"><circle cx="8.5" cy="8.5" r="8.5" transform="translate(76.764 32.75) rotate(90)" fill="#375fe3"/><g transform="matrix(1, 0, 0, 1, 39.76, 15.75)" filter="url(#d)"><circle cx="8.5" cy="8.5" r="8.5" transform="translate(37 17) rotate(90)" fill="#fff"/></g></g><path d="M67.85,38.53l-2.813,3.156h8.18" transform="translate(-0.863 -1.858)" fill="none" stroke="#fff" stroke-linecap="round" stroke-linejoin="round" stroke-width="1.3"/><path d="M70.4,41.686l2.813-3.156h-8.18" transform="translate(-0.863 4.142)" fill="none" stroke="#fff" stroke-linecap="round" stroke-linejoin="round" stroke-width="1.3"/></g></g></g></svg>