<svg xmlns="http://www.w3.org/2000/svg" width="24" height="24" viewBox="0 0 24 24"><rect width="24" height="24" fill="none" opacity="0.5"/><path d="M16.8,16.94A1.462,1.462,0,0,1,15.341,18.4H2.708A1.462,1.462,0,0,1,1.25,16.94v-8.8a3.113,3.113,0,0,1,1.2-2.284L7.823,1.591a2.287,2.287,0,0,1,2.4,0L15.6,5.857a3.111,3.111,0,0,1,1.2,2.284v8.8Z" transform="translate(2.976 1.927)" fill="none" stroke="#333" stroke-linecap="round" stroke-linejoin="round" stroke-width="1.6"/><path d="M15.33,26.2H10.738V20.473a.983.983,0,0,1,.983-.983h2.626a.983.983,0,0,1,.983.983Z" transform="translate(-1.077 -5.99)" fill="none" stroke="#333" stroke-linecap="round" stroke-linejoin="round" stroke-width="1.6"/></svg>