<svg xmlns="http://www.w3.org/2000/svg" xmlns:xlink="http://www.w3.org/1999/xlink" width="32" height="32" viewBox="0 0 32 32"><defs><linearGradient id="a" x1="0.325" y1="0.133" x2="0.781" y2="0.905" gradientUnits="objectBoundingBox"><stop offset="0" stop-color="#40b1f8"/><stop offset="1" stop-color="#3e8bf3"/></linearGradient><filter id="b"><feOffset dx="-1" dy="-1" input="SourceAlpha"/><feGaussianBlur stdDeviation="1" result="c"/><feFlood flood-color="#d4e7f3" result="d"/><feComposite operator="out" in="SourceGraphic" in2="c"/><feComposite operator="in" in="d"/><feComposite operator="in" in2="SourceGraphic"/></filter></defs><g transform="translate(18802 -1460)"><rect width="32" height="32" transform="translate(-18802 1460)" fill="red" opacity="0"/><g transform="translate(-18799.732 1462.268)"><circle cx="14" cy="14" r="14" transform="translate(-0.268 -0.268)" fill="url(#a)"/><g transform="translate(6.113 4.981)"><g data-type="innerShadowGroup"><path d="M14.938,20.643a.4.4,0,0,1-.053,0A7.9,7.9,0,0,1,8,12.824V7.608a.509.509,0,0,1,.493-.5,12,12,0,0,0,6.152-2.017.527.527,0,0,1,.587,0A11.857,11.857,0,0,0,19.8,6.929a12.055,12.055,0,0,0,1.587.175.507.507,0,0,1,.491.5v5.216a7.9,7.9,0,0,1-6.885,7.816C14.974,20.638,14.954,20.643,14.938,20.643Z" transform="translate(-7.319 -4.07)" fill="#fff"/><g transform="matrix(1, 0, 0, 1, -8.38, -7.25)" filter="url(#b)"><path d="M14.938,20.643a.4.4,0,0,1-.053,0A7.9,7.9,0,0,1,8,12.824V7.608a.509.509,0,0,1,.493-.5,12,12,0,0,0,6.152-2.017.527.527,0,0,1,.587,0A11.857,11.857,0,0,0,19.8,6.929a12.055,12.055,0,0,0,1.587.175.507.507,0,0,1,.491.5v5.216a7.9,7.9,0,0,1-6.885,7.816C14.974,20.638,14.954,20.643,14.938,20.643Z" transform="translate(1.06 3.18)" fill="#fff"/></g></g><path d="M10.362,14.788a1.6,1.6,0,1,0-1.6-1.6A1.6,1.6,0,0,0,10.362,14.788Z" transform="translate(-2.744 -6.037)" fill="#227de9"/><rect width="1.2" height="4" rx="0.6" transform="translate(7.019 7.951)" fill="#227de9"/></g></g></g></svg>