<svg xmlns="http://www.w3.org/2000/svg" xmlns:xlink="http://www.w3.org/1999/xlink" width="40" height="40" viewBox="0 0 40 40"><defs><filter id="a"><feOffset dx="-1" dy="-1" input="SourceAlpha"/><feGaussianBlur stdDeviation="3" result="b"/><feFlood flood-color="#0068d9" flood-opacity="0.2" result="c"/><feComposite operator="out" in="SourceGraphic" in2="b"/><feComposite operator="in" in="c"/><feComposite operator="in" in2="SourceGraphic"/></filter></defs><g transform="translate(-40 -20)"><rect width="40" height="40" transform="translate(40 20)" fill="#ff1919" opacity="0"/><g transform="translate(39.11 20.469)"><g transform="translate(7.35 4.267)"><g data-type="innerShadowGroup"><path d="M20.574,33.351a.715.715,0,0,1-.1,0C13.38,32.654,7.978,26.133,8,19.181V9.726a.922.922,0,0,1,.894-.909A21.746,21.746,0,0,0,20.045,5.162a.955.955,0,0,1,1.063,0A21.491,21.491,0,0,0,29.382,8.5a21.849,21.849,0,0,0,2.877.317.918.918,0,0,1,.889.909v9.454c.022,6.953-5.38,13.473-12.479,14.167C20.639,33.343,20.6,33.351,20.574,33.351Z" transform="translate(-7.035 -3.912)" fill="#7cbbff"/><g transform="matrix(1, 0, 0, 1, -6.46, -4.74)" filter="url(#a)"><path d="M20.574,33.351a.715.715,0,0,1-.1,0C13.38,32.654,7.978,26.133,8,19.181V9.726a.922.922,0,0,1,.894-.909A21.746,21.746,0,0,0,20.045,5.162a.955.955,0,0,1,1.063,0A21.491,21.491,0,0,0,29.382,8.5a21.849,21.849,0,0,0,2.877.317.918.918,0,0,1,.889.909v9.454c.022,6.953-5.38,13.473-12.479,14.167C20.639,33.343,20.6,33.351,20.574,33.351Z" transform="translate(-0.57 0.82)" fill="#fff"/></g></g><path d="M22.026,10a17.465,17.465,0,0,0,6.77,2.762,17.66,17.66,0,0,0,2.353.262h0a.283.283,0,0,1,.275.28v7.629h0A10.5,10.5,0,0,1,21.9,31.36l-.044,0h-.043a10.5,10.5,0,0,1-9.53-10.422h0V13.313a.286.286,0,0,1,.278-.28h0A17.644,17.644,0,0,0,21.689,10h0A.3.3,0,0,1,22.026,10Z" transform="translate(-8.317 -5.393)" fill="none" stroke="#fff" stroke-width="1.2" opacity="0.7"/><path d="M4.086,8.523a.925.925,0,0,1-.653-.27L.27,5.09a.923.923,0,0,1,1.3-1.3L4.081,6.291,10.019.275a.922.922,0,0,1,1.313,1.3L4.742,8.248a.923.923,0,0,1-.654.275Z" transform="translate(8.588 11.003)" fill="#fff" stroke="#fff" stroke-width="0.2"/></g></g></g></svg>