<svg xmlns="http://www.w3.org/2000/svg" xmlns:xlink="http://www.w3.org/1999/xlink" width="20" height="20" viewBox="0 0 20 20"><defs><clipPath id="a"><rect width="6" height="10" transform="translate(-0.425 -0.18)" fill="none"/></clipPath></defs><circle cx="8" cy="8" r="8" transform="translate(2 2)" fill="#5c627c"/><rect width="20" height="20" fill="none"/><g transform="translate(7.425 5.18)" clip-path="url(#a)"><path d="M1.574,4.963a1.389,1.389,0,0,1,.8-1.457L2.719,3.3c.462-.281.764-.613.764-1a.823.823,0,0,0-.914-.784,1,1,0,0,0-1.055.754A.729.729,0,0,1,.549,2.7a.723.723,0,0,1-.532-.874A2.372,2.372,0,0,1,2.458,0C4.085,0,5.151.9,5.151,2.3A2.381,2.381,0,0,1,3.8,4.35l-.311.2a.527.527,0,0,0-.271.5v.2a.752.752,0,0,1-.824.814.753.753,0,0,1-.824-.814ZM2.4,6.771A1.015,1.015,0,1,1,1.383,7.786,1.025,1.025,0,0,1,2.4,6.771" transform="translate(0.001 0.42)" fill="#fff"/></g></svg>