<svg xmlns="http://www.w3.org/2000/svg" width="20" height="20" viewBox="0 0 20 20"><g transform="translate(-36 -8)"><circle cx="10" cy="10" r="10" transform="translate(36 8)" fill="#43de5e"/><path d="M23.862,29.24a4.349,4.349,0,0,0,2.564-3.782C26.426,23,23.984,21,20.973,21s-5.453,2-5.453,4.458,2.442,4.458,5.453,4.458a6.606,6.606,0,0,0,1.462-.162,8.106,8.106,0,0,0,.927.554c.793.4,1.659.673,1.106.115A1.59,1.59,0,0,1,23.862,29.24Z" transform="translate(25.027 -7.621)" fill="#fff" fill-rule="evenodd"/></g></svg>