<svg xmlns="http://www.w3.org/2000/svg" width="20" height="20" viewBox="0 0 20 20"><path d="M10.745,4.325a1.449,1.449,0,0,1,2.51,0l1.83,3.265a1.428,1.428,0,0,0,.992.7l3.756.685a1.381,1.381,0,0,1,.776,2.324L17.983,14a1.368,1.368,0,0,0-.379,1.135l.492,3.689a1.422,1.422,0,0,1-2.031,1.436l-3.452-1.595a1.466,1.466,0,0,0-1.226,0L7.935,20.263A1.422,1.422,0,0,1,5.9,18.827L6.4,15.138A1.368,1.368,0,0,0,6.017,14L3.392,11.3a1.381,1.381,0,0,1,.776-2.324l3.756-.685a1.428,1.428,0,0,0,.992-.7Z" transform="translate(-2 -2)" fill="#ffcf23"/><rect width="20" height="20" fill="none"/></svg>