<svg xmlns="http://www.w3.org/2000/svg" xmlns:xlink="http://www.w3.org/1999/xlink" width="32" height="32" viewBox="0 0 32 32"><defs><clipPath id="a"><path d="M0,0H22V15.8H0Z" transform="translate(3.998 5)" fill="#fff"/></clipPath></defs><g transform="translate(17479 10373)"><rect width="32" height="32" transform="translate(-17479 -10373)" fill="none"/><g transform="translate(-17477.998 -10372)"><path d="M22.844,5H6.679A2.747,2.747,0,0,0,4,7.812V18a2.748,2.748,0,0,0,2.679,2.813h1.15v2.557A1.588,1.588,0,0,0,9.378,25a1.506,1.506,0,0,0,1.094-.476l3.963-3.676h8.452A3.594,3.594,0,0,0,26,17.6V7.812A3.185,3.185,0,0,0,22.841,5Z" fill="#009e64"/><g clip-path="url(#a)"><path d="M22.844,5H6.679A2.747,2.747,0,0,0,4,7.812V18a2.748,2.748,0,0,0,2.679,2.813h1.15v2.557A1.588,1.588,0,0,0,9.378,25a1.506,1.506,0,0,0,1.094-.476l3.963-3.676h8.452A3.594,3.594,0,0,0,26,17.6V7.812A3.185,3.185,0,0,0,22.841,5Z" fill="#01bc78"/></g><path d="M10.057,14.188a1.3,1.3,0,1,0-1.295-1.3A1.3,1.3,0,0,0,10.057,14.188Z" fill="#fff"/><path d="M15,14.188a1.3,1.3,0,1,0-1.3-1.3A1.3,1.3,0,0,0,15,14.188Z" fill="#fff"/><path d="M19.942,14.188a1.3,1.3,0,1,0-1.3-1.3A1.3,1.3,0,0,0,19.942,14.188Z" fill="#fff"/></g></g></svg>