<svg xmlns="http://www.w3.org/2000/svg" width="20" height="20" viewBox="0 0 20 20"><g transform="translate(10112 17710)"><rect width="20" height="20" transform="translate(-10112 -17710)" fill="#fff" opacity="0"/><path d="M15.064,4.744A1.88,1.88,0,0,1,16.4,5.3a1.88,1.88,0,0,1,.552,1.332v9.984A1.882,1.882,0,0,1,15.064,18.5H3.384A1.883,1.883,0,0,1,1.5,16.612V6.628A1.882,1.882,0,0,1,3.384,4.744" transform="translate(-10111.225 -17710.961)" fill="none" stroke="#2b2b2b" stroke-linecap="round" stroke-linejoin="round" stroke-width="1.5"/><path d="M15.171,4.744H19.5" transform="translate(-10119.338 -17710.961)" fill="none" stroke="#2b2b2b" stroke-linecap="round" stroke-linejoin="round" stroke-width="1.5"/><line y2="2.072" transform="translate(-10106.051 -17707.535)" fill="none" stroke="#2b2b2b" stroke-linecap="round" stroke-linejoin="round" stroke-width="1.5"/><line y2="2.072" transform="translate(-10097.95 -17707.535)" fill="none" stroke="#2b2b2b" stroke-linecap="round" stroke-linejoin="round" stroke-width="1.5"/><circle cx="0.75" cy="0.75" r="0.75" transform="translate(-10106.051 -17702.08)" fill="#2b2b2b"/><circle cx="0.75" cy="0.75" r="0.75" transform="translate(-10106.051 -17699.42)" fill="#2b2b2b"/><circle cx="0.75" cy="0.75" r="0.75" transform="translate(-10102.75 -17702.08)" fill="#2b2b2b"/><circle cx="0.75" cy="0.75" r="0.75" transform="translate(-10102.75 -17699.42)" fill="#2b2b2b"/><circle cx="0.75" cy="0.75" r="0.75" transform="translate(-10099.449 -17702.08)" fill="#2b2b2b"/></g></svg>