<svg xmlns="http://www.w3.org/2000/svg" xmlns:xlink="http://www.w3.org/1999/xlink" width="56.27" height="56" viewBox="0 0 56.27 56"><defs><filter id="a" x="2.452" y="4.548" width="49.209" height="48.918" filterUnits="userSpaceOnUse"><feOffset dy="1" input="SourceAlpha"/><feGaussianBlur stdDeviation="1" result="b"/><feFlood flood-opacity="0.051"/><feComposite operator="in" in2="b"/><feComposite in="SourceGraphic"/></filter><filter id="c" x="2.452" y="4.548" width="49.209" height="48.918" filterUnits="userSpaceOnUse"><feOffset dx="-1" dy="-1" input="SourceAlpha"/><feGaussianBlur stdDeviation="1.5" result="d"/><feFlood flood-color="#9382e8" result="e"/><feComposite operator="out" in="SourceGraphic" in2="d"/><feComposite operator="in" in="e"/><feComposite operator="in" in2="SourceGraphic"/></filter><filter id="f"><feOffset dx="-1" dy="-1" input="SourceAlpha"/><feGaussianBlur stdDeviation="1.5" result="g"/><feFlood flood-opacity="0.161" result="h"/><feComposite operator="out" in="SourceGraphic" in2="g"/><feComposite operator="in" in="h"/><feComposite operator="in" in2="SourceGraphic"/></filter></defs><g transform="translate(-205 -1261)"><g transform="translate(206 1262)"><rect width="56" height="56" transform="translate(-1 -1)" fill="red" opacity="0"/><g transform="translate(4.452 5.548)"><g data-type="innerShadowGroup"><g transform="matrix(1, 0, 0, 1, -5.45, -6.55)" filter="url(#a)"><ellipse cx="21.604" cy="21.459" rx="21.604" ry="21.459" transform="translate(5.45 6.55)" fill="#af9ff4"/></g><g transform="matrix(1, 0, 0, 1, -5.45, -6.55)" filter="url(#c)"><ellipse cx="21.604" cy="21.459" rx="21.604" ry="21.459" transform="translate(5.45 6.55)" fill="#fff"/></g></g><g transform="translate(13.604 13.458)"><path d="M16.208,3.173a1.574,1.574,0,0,0-2.226,0L1.127,16.028a1.574,1.574,0,1,0,2.226,2.226L16.208,5.4a1.574,1.574,0,0,0,0-2.226" transform="translate(-0.666 -2.712)" fill="#fff"/><path d="M65.466,64.42a2.8,2.8,0,1,0,2.8,2.8,2.8,2.8,0,0,0-2.8-2.8" transform="translate(-52.259 -54.011)" fill="#fff"/><path d="M2.8,5.593A2.8,2.8,0,1,0,0,2.8a2.8,2.8,0,0,0,2.8,2.8" transform="translate(0 0)" fill="#fff"/></g></g></g><g data-type="innerShadowGroup"><g transform="translate(242.14 1289.621)" fill="#0044a0"><path d="M 8.429510116577148 20.88575553894043 C 7.814800262451172 20.88575553894043 7.219730377197266 20.62994575500488 6.796870231628418 20.18391418457031 L -0.4021095633506775 12.5925350189209 C -1.021549582481384 11.93992519378662 -1.19249951839447 10.98362445831299 -0.8372495770454407 10.15665531158447 C -0.481889545917511 9.329424858093262 0.3296704292297363 8.794904708862305 1.230300426483154 8.794904708862305 L 4.981600284576416 8.794904708862305 L 4.981600284576416 2.198704957962036 C 4.981600284576416 0.2970848977565765 6.528280258178711 -1.249995112419128 8.429400444030762 -1.249995112419128 C 10.33102035522461 -1.249995112419128 11.87810039520264 0.2970848977565765 11.87810039520264 2.198704957962036 L 11.87810039520264 8.794904708862305 L 15.6294002532959 8.794904708862305 C 16.52946090698242 8.794904708862305 17.34072113037109 9.329014778137207 17.69617080688477 10.15561485290527 C 18.05171012878418 10.98242473602295 17.88132095336914 11.93887519836426 17.26206970214844 12.59226512908936 L 10.06271076202393 20.18403434753418 C 9.638650894165039 20.63031578063965 9.043680191040039 20.88575553894043 8.429510116577148 20.88575553894043 Z" stroke="none"/><path d="M 8.429510116577148 19.63575553894043 C 8.693770408630371 19.63575553894043 8.958150863647461 19.53180503845215 9.15570068359375 19.32390403747559 L 16.35480117797852 11.7324047088623 C 16.95870018005371 11.09520530700684 16.5078010559082 10.0449047088623 15.6294002532959 10.0449047088623 L 10.62810039520264 10.0449047088623 L 10.62810039520264 2.198704957962036 C 10.62810039520264 0.9846048951148987 9.643500328063965 4.908447408524808e-06 8.429400444030762 4.908447408524808e-06 C 7.215300559997559 4.908447408524808e-06 6.231600284576416 0.9846048951148987 6.231600284576416 2.198704957962036 L 6.231600284576416 10.0449047088623 L 1.230300426483154 10.0449047088623 C 0.3519004583358765 10.0449047088623 -0.09989955276250839 11.09520530700684 0.5049004554748535 11.7324047088623 L 7.704000473022461 19.32390403747559 C 7.901100635528564 19.53180503845215 8.165250778198242 19.63575553894043 8.429510116577148 19.63575553894043 M 8.429510116577148 22.13575553894043 C 7.473280429840088 22.13575553894043 6.54757022857666 21.73779487609863 5.889740467071533 21.04392433166504 L -1.309129595756531 13.45266532897949 C -2.272559642791748 12.43762493133545 -2.538459539413452 10.94988536834717 -1.985769510269165 9.663285255432129 C -1.43295955657959 8.376415252685547 -0.1705795526504517 7.544904708862305 1.230300426483154 7.544904708862305 L 3.731600522994995 7.544904708862305 L 3.731600522994995 2.198704957962036 C 3.731600522994995 -0.3921650946140289 5.839020252227783 -2.499994993209839 8.429400444030762 -2.499994993209839 C 11.02027034759521 -2.499994993209839 13.12810039520264 -0.3921650946140289 13.12810039520264 2.198704957962036 L 13.12810039520264 7.544904708862305 L 15.6294002532959 7.544904708862305 C 17.02951049804688 7.544904708862305 18.2915096282959 8.375844955444336 18.8444995880127 9.66181468963623 C 19.39758110046387 10.94800472259521 19.13257026672363 12.4357852935791 18.16934013366699 13.45212459564209 L 10.96973037719727 21.04416465759277 C 10.30992031097412 21.73854446411133 9.384670257568359 22.13575553894043 8.429510116577148 22.13575553894043 Z" stroke="none"/></g><g transform="matrix(1, 0, 0, 1, 205, 1261)" filter="url(#f)"><g transform="translate(37.14 28.62)" fill="#fff"><path d="M 8.429510116577148 20.88575553894043 C 7.814800262451172 20.88575553894043 7.219730377197266 20.62994575500488 6.796870231628418 20.18391418457031 L -0.4021095633506775 12.5925350189209 C -1.021549582481384 11.93992519378662 -1.19249951839447 10.98362445831299 -0.8372495770454407 10.15665531158447 C -0.481889545917511 9.329424858093262 0.3296704292297363 8.794904708862305 1.230300426483154 8.794904708862305 L 4.981600284576416 8.794904708862305 L 4.981600284576416 2.198704957962036 C 4.981600284576416 0.2970848977565765 6.528280258178711 -1.249995112419128 8.429400444030762 -1.249995112419128 C 10.33102035522461 -1.249995112419128 11.87810039520264 0.2970848977565765 11.87810039520264 2.198704957962036 L 11.87810039520264 8.794904708862305 L 15.6294002532959 8.794904708862305 C 16.52946090698242 8.794904708862305 17.34072113037109 9.329014778137207 17.69617080688477 10.15561485290527 C 18.05171012878418 10.98242473602295 17.88132095336914 11.93887519836426 17.26206970214844 12.59226512908936 L 10.06271076202393 20.18403434753418 C 9.638650894165039 20.63031578063965 9.043680191040039 20.88575553894043 8.429510116577148 20.88575553894043 Z" stroke="none"/><path d="M 8.429510116577148 19.63575553894043 C 8.693770408630371 19.63575553894043 8.958150863647461 19.53180503845215 9.15570068359375 19.32390403747559 L 16.35480117797852 11.7324047088623 C 16.95870018005371 11.09520530700684 16.5078010559082 10.0449047088623 15.6294002532959 10.0449047088623 L 10.62810039520264 10.0449047088623 L 10.62810039520264 2.198704957962036 C 10.62810039520264 0.9846048951148987 9.643500328063965 4.908447408524808e-06 8.429400444030762 4.908447408524808e-06 C 7.215300559997559 4.908447408524808e-06 6.231600284576416 0.9846048951148987 6.231600284576416 2.198704957962036 L 6.231600284576416 10.0449047088623 L 1.230300426483154 10.0449047088623 C 0.3519004583358765 10.0449047088623 -0.09989955276250839 11.09520530700684 0.5049004554748535 11.7324047088623 L 7.704000473022461 19.32390403747559 C 7.901100635528564 19.53180503845215 8.165250778198242 19.63575553894043 8.429510116577148 19.63575553894043 M 8.429510116577148 22.13575553894043 C 7.473280429840088 22.13575553894043 6.54757022857666 21.73779487609863 5.889740467071533 21.04392433166504 L -1.309129595756531 13.45266532897949 C -2.272559642791748 12.43762493133545 -2.538459539413452 10.94988536834717 -1.985769510269165 9.663285255432129 C -1.43295955657959 8.376415252685547 -0.1705795526504517 7.544904708862305 1.230300426483154 7.544904708862305 L 3.731600522994995 7.544904708862305 L 3.731600522994995 2.198704957962036 C 3.731600522994995 -0.3921650946140289 5.839020252227783 -2.499994993209839 8.429400444030762 -2.499994993209839 C 11.02027034759521 -2.499994993209839 13.12810039520264 -0.3921650946140289 13.12810039520264 2.198704957962036 L 13.12810039520264 7.544904708862305 L 15.6294002532959 7.544904708862305 C 17.02951049804688 7.544904708862305 18.2915096282959 8.375844955444336 18.8444995880127 9.66181468963623 C 19.39758110046387 10.94800472259521 19.13257026672363 12.4357852935791 18.16934013366699 13.45212459564209 L 10.96973037719727 21.04416465759277 C 10.30992031097412 21.73854446411133 9.384670257568359 22.13575553894043 8.429510116577148 22.13575553894043 Z" stroke="none"/></g></g><g transform="translate(242.14 1289.621)" fill="none"><path d="M 8.429510116577148 20.88575553894043 C 7.814800262451172 20.88575553894043 7.219730377197266 20.62994575500488 6.796870231628418 20.18391418457031 L -0.4021095633506775 12.5925350189209 C -1.021549582481384 11.93992519378662 -1.19249951839447 10.98362445831299 -0.8372495770454407 10.15665531158447 C -0.481889545917511 9.329424858093262 0.3296704292297363 8.794904708862305 1.230300426483154 8.794904708862305 L 4.981600284576416 8.794904708862305 L 4.981600284576416 2.198704957962036 C 4.981600284576416 0.2970848977565765 6.528280258178711 -1.249995112419128 8.429400444030762 -1.249995112419128 C 10.33102035522461 -1.249995112419128 11.87810039520264 0.2970848977565765 11.87810039520264 2.198704957962036 L 11.87810039520264 8.794904708862305 L 15.6294002532959 8.794904708862305 C 16.52946090698242 8.794904708862305 17.34072113037109 9.329014778137207 17.69617080688477 10.15561485290527 C 18.05171012878418 10.98242473602295 17.88132095336914 11.93887519836426 17.26206970214844 12.59226512908936 L 10.06271076202393 20.18403434753418 C 9.638650894165039 20.63031578063965 9.043680191040039 20.88575553894043 8.429510116577148 20.88575553894043 Z" stroke="none"/><path d="M 8.429510116577148 19.63575553894043 C 8.693770408630371 19.63575553894043 8.958150863647461 19.53180503845215 9.15570068359375 19.32390403747559 L 16.35480117797852 11.7324047088623 C 16.95870018005371 11.09520530700684 16.5078010559082 10.0449047088623 15.6294002532959 10.0449047088623 L 10.62810039520264 10.0449047088623 L 10.62810039520264 2.198704957962036 C 10.62810039520264 0.9846048951148987 9.643500328063965 4.908447408524808e-06 8.429400444030762 4.908447408524808e-06 C 7.215300559997559 4.908447408524808e-06 6.231600284576416 0.9846048951148987 6.231600284576416 2.198704957962036 L 6.231600284576416 10.0449047088623 L 1.230300426483154 10.0449047088623 C 0.3519004583358765 10.0449047088623 -0.09989955276250839 11.09520530700684 0.5049004554748535 11.7324047088623 L 7.704000473022461 19.32390403747559 C 7.901100635528564 19.53180503845215 8.165250778198242 19.63575553894043 8.429510116577148 19.63575553894043 M 8.429510116577148 22.13575553894043 C 7.473280429840088 22.13575553894043 6.54757022857666 21.73779487609863 5.889740467071533 21.04392433166504 L -1.309129595756531 13.45266532897949 C -2.272559642791748 12.43762493133545 -2.538459539413452 10.94988536834717 -1.985769510269165 9.663285255432129 C -1.43295955657959 8.376415252685547 -0.1705795526504517 7.544904708862305 1.230300426483154 7.544904708862305 L 3.731600522994995 7.544904708862305 L 3.731600522994995 2.198704957962036 C 3.731600522994995 -0.3921650946140289 5.839020252227783 -2.499994993209839 8.429400444030762 -2.499994993209839 C 11.02027034759521 -2.499994993209839 13.12810039520264 -0.3921650946140289 13.12810039520264 2.198704957962036 L 13.12810039520264 7.544904708862305 L 15.6294002532959 7.544904708862305 C 17.02951049804688 7.544904708862305 18.2915096282959 8.375844955444336 18.8444995880127 9.66181468963623 C 19.39758110046387 10.94800472259521 19.13257026672363 12.4357852935791 18.16934013366699 13.45212459564209 L 10.96973037719727 21.04416465759277 C 10.30992031097412 21.73854446411133 9.384670257568359 22.13575553894043 8.429510116577148 22.13575553894043 Z" stroke="none" fill="#fff"/></g></g></g></svg>