<svg xmlns="http://www.w3.org/2000/svg" xmlns:xlink="http://www.w3.org/1999/xlink" width="40" height="40" viewBox="0 0 40 40"><defs><filter id="a"><feOffset dx="-1" dy="-1" input="SourceAlpha"/><feGaussianBlur stdDeviation="2" result="b"/><feFlood flood-opacity="0.161" result="c"/><feComposite operator="out" in="SourceGraphic" in2="b"/><feComposite operator="in" in="c"/><feComposite operator="in" in2="SourceGraphic"/></filter><filter id="d"><feOffset dx="-1" dy="-1" input="SourceAlpha"/><feGaussianBlur stdDeviation="1.5" result="e"/><feFlood flood-color="#ffb000" flood-opacity="0.8" result="f"/><feComposite operator="out" in="SourceGraphic" in2="e"/><feComposite operator="in" in="f"/><feComposite operator="in" in2="SourceGraphic"/></filter></defs><g transform="translate(-38 -20)"><rect width="40" height="40" transform="translate(38 20)" fill="#ff4646" opacity="0"/><g transform="translate(-1)"><g transform="translate(38.954 19.918)"><g data-type="innerShadowGroup"><rect width="28" height="23" rx="4" transform="translate(5.046 7.082)" fill="#f8f8f8"/><g transform="matrix(1, 0, 0, 1, 0.05, 0.08)" filter="url(#a)"><rect width="28" height="23" rx="4" transform="translate(5 7)" fill="#fff"/></g></g><g transform="translate(6.744 -1.918)"><path d="M4.895,12.077H8.017A5.359,5.359,0,0,1,4.895,17.6" transform="translate(-1 1.602)" fill="none" stroke="#5167d4" stroke-linecap="round" stroke-linejoin="round" stroke-width="1.6"/><path d="M10.394,11.954v7.582" transform="translate(0 1)" fill="none" stroke="#5167d4" stroke-linecap="round" stroke-width="1.6"/><path d="M10.786,15.479h1.875" transform="translate(0 1)" fill="none" stroke="#5167d4" stroke-linecap="round" stroke-width="1.6"/></g></g><g transform="translate(-0.764 4.249)"><g data-type="innerShadowGroup"><circle cx="8.5" cy="8.5" r="8.5" transform="translate(76.764 32.75) rotate(90)" fill="#ffcb58"/><g transform="matrix(1, 0, 0, 1, 39.76, 15.75)" filter="url(#d)"><circle cx="8.5" cy="8.5" r="8.5" transform="translate(37 17) rotate(90)" fill="#fff"/></g></g><path d="M9.1,11l2.4,6.065L13.59,11l2.1,6.065L17.782,11M8.5,13.6H9.708m7.637,0h1.036" transform="translate(54.981 27.751)" fill="none" stroke="#fff" stroke-linecap="round" stroke-linejoin="round" stroke-width="1.4"/></g></g></g></svg>