<svg xmlns="http://www.w3.org/2000/svg" xmlns:xlink="http://www.w3.org/1999/xlink" width="36" height="36" viewBox="0 0 36 36"><defs><linearGradient id="a" x1="0.094" y1="0.047" x2="1" y2="1.05" gradientUnits="objectBoundingBox"><stop offset="0" stop-color="#5c95ff"/><stop offset="1" stop-color="#7136d3"/></linearGradient><filter id="b"><feOffset dx="-1" dy="-1" input="SourceAlpha"/><feGaussianBlur stdDeviation="1" result="c"/><feFlood flood-opacity="0.161" result="d"/><feComposite operator="out" in="SourceGraphic" in2="c"/><feComposite operator="in" in="d"/><feComposite operator="in" in2="SourceGraphic"/></filter><filter id="e"><feOffset dx="-0.5" dy="-0.5" input="SourceAlpha"/><feGaussianBlur stdDeviation="0.75" result="f"/><feFlood flood-color="#e3e3e3" flood-opacity="0.502" result="g"/><feComposite operator="out" in="SourceGraphic" in2="f"/><feComposite operator="in" in="g"/><feComposite operator="in" in2="SourceGraphic"/></filter></defs><g transform="translate(17793 -1537)"><g transform="translate(1009 77)"><rect width="36" height="36" transform="translate(-18802 1460)" fill="red" opacity="0"/></g><g transform="translate(0 0.585)"><g transform="translate(-17788 1539.415)"><g data-type="innerShadowGroup"><rect width="26" height="29" rx="5" opacity="0.8" fill="url(#a)"/><g transform="matrix(1, 0, 0, 1, -5, -3)" filter="url(#b)"><rect width="26" height="29" rx="5" transform="translate(5 3)" fill="#fff" opacity="0.8"/></g></g><rect width="7" height="2" rx="1" transform="translate(9.612 3.085)" fill="#fff"/><g data-type="innerShadowGroup"><path d="M6.164,12.3a1.662,1.662,0,0,1-1.148-.465L1.052,8.024a1.714,1.714,0,0,1-.063-2.4,1.649,1.649,0,0,1,2.325-.092l.028.026L6.1,8.21l6.364-6.822a1.649,1.649,0,0,1,2.326-.093l.027.027a1.714,1.714,0,0,1,.063,2.4L7.367,11.772a1.652,1.652,0,0,1-1.2.533Z" transform="translate(5.068 9.325)" fill="#fff"/><g transform="matrix(1, 0, 0, 1, -5, -3)" filter="url(#e)"><path d="M6.164,12.3a1.662,1.662,0,0,1-1.148-.465L1.052,8.024a1.714,1.714,0,0,1-.063-2.4,1.649,1.649,0,0,1,2.325-.092l.028.026L6.1,8.21l6.364-6.822a1.649,1.649,0,0,1,2.326-.093l.027.027a1.714,1.714,0,0,1,.063,2.4L7.367,11.772a1.652,1.652,0,0,1-1.2.533Z" transform="translate(10.07 12.32)" fill="#fff"/></g></g></g></g></g></svg>