<svg xmlns="http://www.w3.org/2000/svg" xmlns:xlink="http://www.w3.org/1999/xlink" width="40" height="40" viewBox="0 0 40 40"><defs><filter id="a"><feOffset dx="-2" dy="-2" input="SourceAlpha"/><feGaussianBlur stdDeviation="2.5" result="b"/><feFlood flood-color="#cb8c00" flood-opacity="0.2" result="c"/><feComposite operator="out" in="SourceGraphic" in2="b"/><feComposite operator="in" in="c"/><feComposite operator="in" in2="SourceGraphic"/></filter></defs><g transform="translate(-39 -20)"><rect width="40" height="40" transform="translate(39 20)" fill="#ff3636" opacity="0"/><g transform="translate(-8243.326 -1806.61)"><g transform="translate(8290.113 1832.304)"><g data-type="innerShadowGroup"><path d="M20.985,37.763H3.44a3.611,3.611,0,0,1-1.316-.247,3.459,3.459,0,0,1-1.116-.7,3.247,3.247,0,0,1-.746-1.055A3.1,3.1,0,0,1,0,34.512v-6.99a11.244,11.244,0,0,1,3.577-8.168,12.712,12.712,0,0,1,17.271,0,11.244,11.244,0,0,1,3.577,8.168v6.99a3.1,3.1,0,0,1-.262,1.245,3.247,3.247,0,0,1-.746,1.055,3.459,3.459,0,0,1-1.116.7A3.611,3.611,0,0,1,20.985,37.763Z" transform="translate(0 -9.15)" fill="#ffcb58"/><g transform="matrix(1, 0, 0, 1, -7.79, -5.69)" filter="url(#a)"><path d="M20.985,37.763H3.44a3.611,3.611,0,0,1-1.316-.247,3.459,3.459,0,0,1-1.116-.7,3.247,3.247,0,0,1-.746-1.055A3.1,3.1,0,0,1,0,34.512v-6.99a11.244,11.244,0,0,1,3.577-8.168,12.712,12.712,0,0,1,17.271,0,11.244,11.244,0,0,1,3.577,8.168v6.99a3.1,3.1,0,0,1-.262,1.245,3.247,3.247,0,0,1-.746,1.055,3.459,3.459,0,0,1-1.116.7A3.611,3.611,0,0,1,20.985,37.763Z" transform="translate(7.79 -3.46)" fill="#fff"/></g></g><path d="M34.751.754a.658.658,0,0,0-.128-.023.425.425,0,0,0-.239.059,3.424,3.424,0,0,1-1.96.548A3.591,3.591,0,0,1,30.207.627a3.268,3.268,0,0,0-3.85,0,3.591,3.591,0,0,1-2.217.711A3.427,3.427,0,0,1,22.18.79a.425.425,0,0,0-.239-.059.661.661,0,0,0-.127.023A.457.457,0,0,0,21.582.9a.355.355,0,0,0-.087.233V2.605a5.547,5.547,0,0,0,1.938,4.243,7.369,7.369,0,0,0,9.7,0,5.547,5.547,0,0,0,1.938-4.243V1.129A.355.355,0,0,0,34.982.9.457.457,0,0,0,34.751.754Z" transform="translate(-16.07 0.001)" fill="#ffcb58"/><path d="M29.282,17.488a21.95,21.95,0,0,1-6.017-.841,1.1,1.1,0,0,1-.732-1.339,1.034,1.034,0,0,1,1.277-.766,19.958,19.958,0,0,0,10.944,0,1.031,1.031,0,0,1,1.277.766,1.1,1.1,0,0,1-.731,1.339,21.95,21.95,0,0,1-6.017.841" transform="translate(-17.07 -8.631)" fill="#a75d41"/><path d="M9.154,11l2.617,6.628L14.062,11l2.29,6.628L18.643,11M8.5,13.841H9.82m8.345,0H19.3" transform="translate(-1.686 4.807)" fill="none" stroke="#fff" stroke-linecap="round" stroke-linejoin="round" stroke-width="1.6"/></g></g></g></svg>