<svg xmlns="http://www.w3.org/2000/svg" xmlns:xlink="http://www.w3.org/1999/xlink" width="40" height="40" viewBox="0 0 40 40"><defs><linearGradient id="a" x1="0.198" y1="0.148" x2="0.894" y2="0.905" gradientUnits="objectBoundingBox"><stop offset="0" stop-color="#3182f7"/><stop offset="1" stop-color="#2a6bc9"/></linearGradient><filter id="b" x="9.059" y="8.391" width="25.134" height="25.134" filterUnits="userSpaceOnUse"><feOffset dx="1" dy="1" input="SourceAlpha"/><feGaussianBlur stdDeviation="1" result="c"/><feFlood flood-opacity="0.102"/><feComposite operator="in" in2="c"/><feComposite in="SourceGraphic"/></filter></defs><g transform="translate(-129.978 -192)"><g transform="translate(129.979 192)"><rect width="40" height="40" rx="20" transform="translate(-0.001)" fill="#fff" opacity="0"/><circle cx="17.69" cy="17.69" r="17.69" transform="translate(2.271 1.994)" fill="url(#a)"/><g transform="matrix(1, 0, 0, 1, 0, 0)" filter="url(#b)"><path d="M16.179,12.366a1.685,1.685,0,0,0-1.257-.566,1.484,1.484,0,0,0-1,.458c-.522.537-1.523,1.247-2.041,1.093A30.281,30.281,0,0,1,8.753,10.4l-.015-.015A30.438,30.438,0,0,1,5.783,7.251c-.152-.519.558-1.52,1.1-2.042a1.485,1.485,0,0,0,.456-1,1.681,1.681,0,0,0-.566-1.256L4.385.572A1.7,1.7,0,0,0,2.122.316l-.03.025A5.619,5.619,0,0,0,0,4.647C-.054,9.047,4.666,13.5,5.1,13.9l.04.045A.572.572,0,0,0,5.2,14l.029.025c.3.327,4.758,5.111,9.188,5.11h.077a5.619,5.619,0,0,0,4.3-2.091l.025-.031a1.705,1.705,0,0,0-.255-2.263Z" transform="translate(11.06 10.39)" fill="#fff"/></g></g></g></svg>