<svg xmlns="http://www.w3.org/2000/svg" xmlns:xlink="http://www.w3.org/1999/xlink" width="32" height="32" viewBox="0 0 32 32"><defs><linearGradient id="a" x1="0.156" y1="0.082" x2="0.916" y2="1" gradientUnits="objectBoundingBox"><stop offset="0" stop-color="#32c7c7"/><stop offset="1" stop-color="#159090"/></linearGradient></defs><g transform="translate(18789 -1501)"><g transform="translate(13 41)"><rect width="32" height="32" transform="translate(-18802 1460)" fill="red" opacity="0"/><g transform="translate(-18799.732 1462.268)"><circle cx="14" cy="14" r="14" transform="translate(-0.268 -0.268)" fill="url(#a)"/></g></g><rect width="12" height="18" rx="2" transform="translate(-18779 1508)" fill="#c3f5f5"/><rect width="4" height="1" rx="0.5" transform="translate(-18775 1510)" fill="#1b9b9b"/><path d="M0,0H12a0,0,0,0,1,0,0V1.5a2,2,0,0,1-2,2H2a2,2,0,0,1-2-2V0A0,0,0,0,1,0,0Z" transform="translate(-18779 1522.5)" fill="#fff"/></g></svg>