<svg xmlns="http://www.w3.org/2000/svg" xmlns:xlink="http://www.w3.org/1999/xlink" width="32" height="32" viewBox="0 0 32 32"><defs><linearGradient id="a" x1="0.174" y1="0.166" x2="0.793" y2="0.941" gradientUnits="objectBoundingBox"><stop offset="0" stop-color="#80eb7a"/><stop offset="1" stop-color="#56ba44"/></linearGradient><filter id="b"><feOffset dx="-10" dy="-10" input="SourceAlpha"/><feGaussianBlur stdDeviation="5" result="c"/><feFlood flood-color="#4ea523" flood-opacity="0.2" result="d"/><feComposite operator="out" in="SourceGraphic" in2="c"/><feComposite operator="in" in="d"/><feComposite operator="in" in2="SourceGraphic"/></filter></defs><g transform="translate(-129.979 -192)"><g transform="translate(129.96 192)"><rect width="32" height="32" transform="translate(0.019)" fill="#ffbcbc" opacity="0"/><g transform="translate(5.33 5.271)"><g transform="translate(1.322 1.302)"><g transform="translate(0)"><path d="M1.967.325a.487.487,0,0,1,.918,0L4.75,3.944c.26.5-.006,1.2-.459,1.2H.561c-.453,0-.719-.693-.459-1.2Z" transform="translate(3.431 18.421) rotate(-135)" fill="#67ce58"/><g data-type="innerShadowGroup"><circle cx="9.06" cy="9.06" r="9.06" transform="translate(0.571)" fill="url(#a)"/><g transform="matrix(1, 0, 0, 1, -6.63, -6.57)" filter="url(#b)"><circle cx="9.06" cy="9.06" r="9.06" transform="translate(7.2 6.57)" fill="#fff"/></g></g><path d="M9.959,13.992a1.2,1.2,0,1,0-1.2-1.2A1.2,1.2,0,0,0,9.959,13.992Z" transform="translate(-4.09 -3.73)" fill="#fff"/><path d="M9.959,13.992a1.2,1.2,0,1,0-1.2-1.2A1.2,1.2,0,0,0,9.959,13.992Z" transform="translate(-0.328 -3.73)" fill="#fff"/><path d="M9.959,13.992a1.2,1.2,0,1,0-1.2-1.2A1.2,1.2,0,0,0,9.959,13.992Z" transform="translate(3.282 -3.73)" fill="#fff"/></g></g></g></g></g></svg>