<svg xmlns="http://www.w3.org/2000/svg" xmlns:xlink="http://www.w3.org/1999/xlink" width="40" height="40" viewBox="0 0 40 40"><defs><filter id="a"><feOffset dx="-1" dy="-1" input="SourceAlpha"/><feGaussianBlur stdDeviation="1.5" result="b"/><feFlood flood-opacity="0.161" result="c"/><feComposite operator="out" in="SourceGraphic" in2="b"/><feComposite operator="in" in="c"/><feComposite operator="in" in2="SourceGraphic"/></filter><filter id="d"><feOffset dx="-2" dy="-2" input="SourceAlpha"/><feGaussianBlur stdDeviation="1" result="e"/><feFlood flood-color="#1f45c3" flood-opacity="0.502" result="f"/><feComposite operator="out" in="SourceGraphic" in2="e"/><feComposite operator="in" in="f"/><feComposite operator="in" in2="SourceGraphic"/></filter></defs><g transform="translate(-38 -20)"><rect width="40" height="40" transform="translate(38 20)" fill="#ff4646" opacity="0"/><g transform="translate(-1)"><g transform="translate(38.954 19.918)"><g data-type="innerShadowGroup"><rect width="28" height="23" rx="4" transform="translate(5.046 7.082)" fill="#f8f8f8"/><g transform="matrix(1, 0, 0, 1, 0.05, 0.08)" filter="url(#a)"><rect width="28" height="23" rx="4" transform="translate(5 7)" fill="#fff"/></g></g><rect width="7" height="1.6" rx="0.8" transform="translate(9.046 11.082)" fill="#b7b7b7"/><rect width="12" height="1.6" rx="0.8" transform="translate(9.046 15.082)" fill="#b7b7b7"/></g><g transform="translate(-0.764 4.249)"><g data-type="innerShadowGroup"><circle cx="8.5" cy="8.5" r="8.5" transform="translate(76.764 32.75) rotate(90)" fill="#375fe3"/><g transform="matrix(1, 0, 0, 1, 39.76, 15.75)" filter="url(#d)"><circle cx="8.5" cy="8.5" r="8.5" transform="translate(37 17) rotate(90)" fill="#fff"/></g></g><path d="M3.443,7.181a.779.779,0,0,1-.55-.228L.228,4.289a.777.777,0,0,1,1.1-1.1L3.439,5.3l5-5.07A.777.777,0,0,1,9.548,1.323L4,6.95a.778.778,0,0,1-.551.232Z" transform="translate(63.702 37.831)" fill="#fff" stroke="#fff" stroke-width="0.3"/></g></g></g></svg>