<svg xmlns="http://www.w3.org/2000/svg" width="20" height="20" viewBox="0 0 20 20"><rect width="20" height="20" fill="none"/><g transform="translate(3.25 3.501)"><path d="M10.81,9.142h1.024a.926.926,0,0,0,.926-.926V1.676A.926.926,0,0,0,11.835.75H5.294a.926.926,0,0,0-.926.926V2.7" transform="translate(-0.053 -0.251)" fill="none" stroke="#979797" stroke-linejoin="round" stroke-width="1.5"/><path d="M3.547,4.255H1.676a.926.926,0,0,0-.926.926v6.541a.926.926,0,0,0,.926.926H8.217a.926.926,0,0,0,.926-.926V5.181a.926.926,0,0,0-.926-.926Z" transform="translate(0 -0.278)" fill="none" stroke="#979797" stroke-linejoin="round" stroke-width="1.5"/></g></svg>