<svg xmlns="http://www.w3.org/2000/svg" xmlns:xlink="http://www.w3.org/1999/xlink" width="50" height="50" viewBox="0 0 50 50"><defs><filter id="a"><feOffset dx="-1" dy="-1" input="SourceAlpha"/><feGaussianBlur stdDeviation="1.5" result="b"/><feFlood flood-opacity="0.302" result="c"/><feComposite operator="out" in="SourceGraphic" in2="b"/><feComposite operator="in" in="c"/><feComposite operator="in" in2="SourceGraphic"/></filter><filter id="d" x="5.084" y="3.933" width="32.094" height="32.094" filterUnits="userSpaceOnUse"><feOffset dx="-1" dy="-1" input="SourceAlpha"/><feGaussianBlur stdDeviation="1.5" result="e"/><feFlood flood-opacity="0.2" result="f"/><feComposite operator="out" in="SourceGraphic" in2="e"/><feComposite operator="in" in="f"/><feComposite operator="in" in2="SourceGraphic"/></filter></defs><g transform="translate(-43 -332)"><rect width="50" height="50" transform="translate(43 332)" fill="red" opacity="0"/><g transform="translate(48.084 335.933)"><rect width="4.585" height="8.253" transform="translate(23.757 27.519) rotate(-45)" fill="#212067"/><g data-type="innerShadowGroup"><path d="M1.651,0H6.6A1.651,1.651,0,0,1,8.253,1.651V7.794a4.126,4.126,0,0,1-4.126,4.126h0A4.126,4.126,0,0,1,0,7.794V1.651A1.651,1.651,0,0,1,1.651,0Z" transform="translate(26.999 33.355) rotate(-45)" fill="#9895ff"/><g transform="matrix(1, 0, 0, 1, -5.08, -3.93)" filter="url(#a)"><path d="M1.651,0H6.6A1.651,1.651,0,0,1,8.253,1.651V7.794a4.126,4.126,0,0,1-4.126,4.126h0A4.126,4.126,0,0,1,0,7.794V1.651A1.651,1.651,0,0,1,1.651,0Z" transform="translate(32.08 37.29) rotate(-45)" fill="#fff"/></g></g><circle cx="15.562" cy="15.562" r="15.562" transform="translate(0.404 0.821)" fill="#e7f0ff"/><g data-type="innerShadowGroup"><path d="M16.047,4.585a11.462,11.462,0,1,0,8.105,3.357,11.387,11.387,0,0,0-8.105-3.357m0-4.585A16.047,16.047,0,1,1,0,16.047,16.047,16.047,0,0,1,16.047,0Z" transform="translate(0 0)" fill="#9090ea"/><g transform="matrix(1, 0, 0, 1, -5.08, -3.93)" filter="url(#d)"><path d="M16.047,4.585a11.462,11.462,0,1,0,8.105,3.357,11.387,11.387,0,0,0-8.105-3.357m0-4.585A16.047,16.047,0,1,1,0,16.047,16.047,16.047,0,0,1,16.047,0Z" transform="translate(5.08 3.93)" fill="#fff"/></g></g></g></g></svg>