<svg xmlns="http://www.w3.org/2000/svg" xmlns:xlink="http://www.w3.org/1999/xlink" width="50" height="50" viewBox="0 0 50 50"><defs><linearGradient id="a" x1="0.254" y1="0.089" x2="0.857" y2="0.935" gradientUnits="objectBoundingBox"><stop offset="0" stop-color="#80b3fe"/><stop offset="1" stop-color="#4481d8"/></linearGradient><filter id="b"><feOffset dx="-1" dy="-1" input="SourceAlpha"/><feGaussianBlur stdDeviation="1" result="c"/><feFlood flood-opacity="0.161" result="d"/><feComposite operator="out" in="SourceGraphic" in2="c"/><feComposite operator="in" in="d"/><feComposite operator="in" in2="SourceGraphic"/></filter><filter id="e"><feOffset dx="-1" dy="-1" input="SourceAlpha"/><feGaussianBlur stdDeviation="1" result="f"/><feFlood flood-opacity="0.161" result="g"/><feComposite operator="out" in="SourceGraphic" in2="f"/><feComposite operator="in" in="g"/><feComposite operator="in" in2="SourceGraphic"/></filter><filter id="h"><feOffset dx="-1" dy="-1" input="SourceAlpha"/><feGaussianBlur stdDeviation="1" result="i"/><feFlood flood-opacity="0.161" result="j"/><feComposite operator="out" in="SourceGraphic" in2="i"/><feComposite operator="in" in="j"/><feComposite operator="in" in2="SourceGraphic"/></filter><filter id="k"><feOffset dx="-1" dy="-1" input="SourceAlpha"/><feGaussianBlur stdDeviation="1" result="l"/><feFlood flood-opacity="0.161" result="m"/><feComposite operator="out" in="SourceGraphic" in2="l"/><feComposite operator="in" in="m"/><feComposite operator="in" in2="SourceGraphic"/></filter><filter id="n" x="20" y="7" width="13" height="13" filterUnits="userSpaceOnUse"><feOffset dx="1" dy="1" input="SourceAlpha"/><feGaussianBlur stdDeviation="1" result="o"/><feFlood flood-opacity="0.161"/><feComposite operator="in" in2="o"/><feComposite in="SourceGraphic"/></filter><filter id="p"><feOffset dx="-1" dy="-1" input="SourceAlpha"/><feGaussianBlur stdDeviation="1" result="q"/><feFlood flood-opacity="0.161" result="r"/><feComposite operator="out" in="SourceGraphic" in2="q"/><feComposite operator="in" in="r"/><feComposite operator="in" in2="SourceGraphic"/></filter></defs><g transform="translate(16804 -5204)"><rect width="25" height="20" transform="translate(-16791 5225)" fill="none"/><rect width="50" height="50" transform="translate(-16804 5204)" fill="red" opacity="0"/><g transform="translate(2.241 2.017)"><path d="M21.726,1.052a2,2,0,0,1,2.548,0L41.712,15.458A2,2,0,0,1,40.439,19H5.561a2,2,0,0,1-1.274-3.542Z" transform="translate(-16804.24 5204.983)" fill="url(#a)"/><g data-type="innerShadowGroup"><rect width="21" height="6" rx="2" transform="translate(-16796.24 5243.983) rotate(-90)" fill="#d1e4ff"/><g transform="matrix(1, 0, 0, 1, -16806.24, 5201.98)" filter="url(#b)"><rect width="21" height="6" rx="2" transform="translate(10 42) rotate(-90)" fill="#fff"/></g></g><g data-type="innerShadowGroup"><rect width="21" height="6" rx="2" transform="translate(-16771.24 5243.983) rotate(-90)" fill="#d1e4ff"/><g transform="matrix(1, 0, 0, 1, -16806.24, 5201.98)" filter="url(#e)"><rect width="21" height="6" rx="2" transform="translate(35 42) rotate(-90)" fill="#fff"/></g></g><g data-type="innerShadowGroup"><rect width="21" height="7" rx="2" transform="translate(-16784.24 5243.983) rotate(-90)" fill="#d1e4ff"/><g transform="matrix(1, 0, 0, 1, -16806.24, 5201.98)" filter="url(#h)"><rect width="21" height="7" rx="2" transform="translate(22 42) rotate(-90)" fill="#fff"/></g></g><g data-type="innerShadowGroup"><rect width="42" height="5" rx="2.5" transform="translate(-16802.24 5219.983)" fill="#3967ce"/><g transform="matrix(1, 0, 0, 1, -16806.24, 5201.98)" filter="url(#k)"><rect width="42" height="5" rx="2.5" transform="translate(4 18)" fill="#fff"/></g></g><g transform="matrix(1, 0, 0, 1, -16806.24, 5201.98)" filter="url(#n)"><circle cx="3.5" cy="3.5" r="3.5" transform="translate(22 9)" fill="#fff"/></g><g data-type="innerShadowGroup"><rect width="42" height="5" rx="2.5" transform="translate(-16802.24 5240.983)" fill="#3967ce"/><g transform="matrix(1, 0, 0, 1, -16806.24, 5201.98)" filter="url(#p)"><rect width="42" height="5" rx="2.5" transform="translate(4 39)" fill="#fff"/></g></g></g></g></svg>