<svg xmlns="http://www.w3.org/2000/svg" xmlns:xlink="http://www.w3.org/1999/xlink" width="148" height="148" viewBox="0 0 148 148"><defs><clipPath id="a"><rect width="148" height="148" transform="translate(106 244)" fill="#fae6e9" opacity="0"/></clipPath><linearGradient id="b" x1="0.5" x2="0.5" y2="0.889" gradientUnits="objectBoundingBox"><stop offset="0" stop-color="#8dd5ff"/><stop offset="1" stop-color="#1e6cd4"/></linearGradient><filter id="c" x="45.125" y="43.314" width="58" height="58" filterUnits="userSpaceOnUse"><feOffset dx="-1" dy="-1" input="SourceAlpha"/><feGaussianBlur stdDeviation="1" result="d"/><feFlood flood-opacity="0.161" result="e"/><feComposite operator="out" in="SourceGraphic" in2="d"/><feComposite operator="in" in="e"/><feComposite operator="in" in2="SourceGraphic"/></filter><filter id="f" x="33.125" y="53.551" width="82.005" height="58" filterUnits="userSpaceOnUse"><feOffset dx="-1" dy="-1" input="SourceAlpha"/><feGaussianBlur stdDeviation="1" result="g"/><feFlood flood-color="#d9dee1" result="h"/><feComposite operator="out" in="SourceGraphic" in2="g"/><feComposite operator="in" in="h"/><feComposite operator="in" in2="SourceGraphic"/></filter><linearGradient id="i" x1="0.5" x2="0.5" y2="1" gradientUnits="objectBoundingBox"><stop offset="0" stop-color="#8dd5ff"/><stop offset="1" stop-color="#5da3ff"/></linearGradient><filter id="j"><feOffset dx="-1" dy="-1" input="SourceAlpha"/><feGaussianBlur stdDeviation="2" result="k"/><feFlood flood-color="#5899df" result="l"/><feComposite operator="out" in="SourceGraphic" in2="k"/><feComposite operator="in" in="l"/><feComposite operator="in" in2="SourceGraphic"/></filter><clipPath id="m"><rect width="32.152" height="45.423" transform="translate(0 0)" fill="none"/></clipPath></defs><g transform="translate(-106 -244)"><g clip-path="url(#a)"><rect width="148" height="148" transform="translate(106 244)" fill="#fae6e9" opacity="0"/><g transform="translate(-31.92 -37.428)"><path d="M23.429,0H16.558A12.311,12.311,0,0,0,8.37,3.014a9.716,9.716,0,0,0-3.392,7.274V78.119A10.529,10.529,0,0,0,8.653,86a13.336,13.336,0,0,0,8.871,3.263h80.3A13.333,13.333,0,0,0,106.7,86a10.529,10.529,0,0,0,3.675-7.882V22.183a10.3,10.3,0,0,0-6.719-9.292,12.766,12.766,0,0,0-4.86-.948H83.685a12.2,12.2,0,0,1-8.9-3.711L70.551,3.711A12.208,12.208,0,0,0,61.646,0Z" transform="translate(154.244 300.714)" fill="url(#b)"/><g data-type="innerShadowGroup"><rect width="58" height="58" rx="6" transform="translate(183.044 324.741)" fill="#e6e6e6"/><g transform="matrix(1, 0, 0, 1, 137.92, 281.43)" filter="url(#c)"><rect width="58" height="58" rx="6" transform="translate(45.12 43.31)" fill="#fff"/></g></g><g data-type="innerShadowGroup"><rect width="82.005" height="58" rx="6" transform="translate(171.045 334.979)" fill="#f5f9fc"/><g transform="matrix(1, 0, 0, 1, 137.92, 281.43)" filter="url(#f)"><rect width="82.005" height="58" rx="6" transform="translate(33.12 53.55)" fill="#fff"/></g></g><g data-type="innerShadowGroup"><path d="M10.724,0H106.94c5.9,0,11.477,3.115,10.691,10.691L110.5,49.89c-.752,5.733-4.786,10.691-10.691,10.691H17.852c-5.9,0-10.045-4.781-10.691-10.691L.034,10.691C-.768,2.118,4.82,0,10.724,0Z" transform="translate(153.088 349.561)" fill="url(#i)"/><g transform="matrix(1, 0, 0, 1, 137.92, 281.43)" filter="url(#j)"><path d="M10.724,0H106.94c5.9,0,11.477,3.115,10.691,10.691L110.5,49.89c-.752,5.733-4.786,10.691-10.691,10.691H17.852c-5.9,0-10.045-4.781-10.691-10.691L.034,10.691C-.768,2.118,4.82,0,10.724,0Z" transform="translate(15.17 68.13)" fill="#fff"/></g></g></g><g transform="translate(211.791 334.841)"><g transform="translate(0 0)" clip-path="url(#m)"><path d="M0,61.383v7.988c0,3.5,7.2,6.348,16.077,6.348s16.076-2.844,16.076-6.348V61.383Z" transform="translate(0 -30.296)" fill="#ffce00"/><path d="M16.077,65.658C7.794,65.658.978,63.185.1,60.006a2.587,2.587,0,0,0-.1.7c0,3.506,7.2,6.348,16.077,6.348S32.152,64.21,32.152,60.7a2.585,2.585,0,0,0-.1-.7c-.879,3.179-7.7,5.652-15.977,5.652" transform="translate(0 -29.616)" fill="#ffe783"/><path d="M16.173,60.151c8.281,0,15.1-2.473,15.977-5.652-.879-3.177-7.7-5.651-15.977-5.651S1.075,51.322.2,54.5c.879,3.179,7.695,5.652,15.977,5.652" transform="translate(-0.097 -24.109)" fill="#f9da58"/><path d="M32.116,53.631c0,2.5-6.555,4.53-14.642,4.53S2.831,56.133,2.831,53.631,9.387,49.1,17.474,49.1s14.642,2.028,14.642,4.53" transform="translate(-1.397 -24.234)" fill="#fa0"/><path d="M0,36.958v7.988c0,3.506,7.2,6.348,16.077,6.348s16.076-2.843,16.076-6.348V36.958Z" transform="translate(0 -18.241)" fill="#ffce00"/><path d="M16.077,41.233C7.794,41.233.978,38.759.1,35.58a2.6,2.6,0,0,0-.1.7c0,3.507,7.2,6.349,16.077,6.349s16.076-2.842,16.076-6.349a2.6,2.6,0,0,0-.1-.7c-.879,3.179-7.7,5.653-15.977,5.653" transform="translate(0 -17.561)" fill="#ffe783"/><path d="M16.173,35.728c8.281,0,15.1-2.474,15.977-5.653-.879-3.176-7.7-5.649-15.977-5.649S1.075,26.9.2,30.074c.879,3.179,7.695,5.653,15.977,5.653" transform="translate(-0.097 -12.055)" fill="#f9da58"/><path d="M32.116,29.552c0,2.5-6.555,4.529-14.642,4.529S2.831,32.053,2.831,29.552s6.556-4.53,14.643-4.53,14.642,2.028,14.642,4.53" transform="translate(-1.397 -12.35)" fill="#fa0"/><path d="M0,12.533v7.988c0,3.506,7.2,6.349,16.077,6.349s16.076-2.844,16.076-6.349V12.533Z" transform="translate(0 -6.186)" fill="#ffce00"/><path d="M16.077,16.81C7.794,16.81.978,14.337.1,11.158a2.585,2.585,0,0,0-.1.7C0,15.362,7.2,18.2,16.077,18.2s16.076-2.842,16.076-6.349a2.583,2.583,0,0,0-.1-.7c-.879,3.179-7.7,5.652-15.977,5.652" transform="translate(0 -5.507)" fill="#ffe783"/><path d="M16.173,11.3c8.281,0,15.1-2.473,15.977-5.652C31.272,2.473,24.454,0,16.173,0S1.075,2.473.2,5.651C1.075,8.83,7.891,11.3,16.173,11.3" transform="translate(-0.097 0)" fill="#f9da58"/></g></g></g></g></svg>