<svg xmlns="http://www.w3.org/2000/svg" xmlns:xlink="http://www.w3.org/1999/xlink" width="103" height="103.5" viewBox="0 0 103 103.5"><defs><linearGradient id="a" x1="0.2" y1="0.119" x2="0.891" y2="0.894" gradientUnits="objectBoundingBox"><stop offset="0" stop-color="#65b8f2"/><stop offset="1" stop-color="#4691e5"/></linearGradient><filter id="b"><feOffset dx="-1" dy="-1" input="SourceAlpha"/><feGaussianBlur stdDeviation="5" result="c"/><feFlood flood-opacity="0.149" result="d"/><feComposite operator="out" in="SourceGraphic" in2="c"/><feComposite operator="in" in="d"/><feComposite operator="in" in2="SourceGraphic"/></filter><linearGradient id="e" x1="0.256" y1="0.083" x2="0.792" y2="0.935" gradientUnits="objectBoundingBox"><stop offset="0" stop-color="#6cc4ff"/><stop offset="1" stop-color="#4797f7"/></linearGradient><filter id="f"><feOffset dx="-1" dy="-1" input="SourceAlpha"/><feGaussianBlur stdDeviation="5" result="g"/><feFlood flood-opacity="0.149" result="h"/><feComposite operator="out" in="SourceGraphic" in2="g"/><feComposite operator="in" in="h"/><feComposite operator="in" in2="SourceGraphic"/></filter><filter id="i" x="0" y="0.5" width="103" height="103" filterUnits="userSpaceOnUse"><feOffset dy="2" input="SourceAlpha"/><feGaussianBlur stdDeviation="2.5" result="j"/><feFlood flood-opacity="0.102"/><feComposite operator="in" in2="j"/><feComposite in="SourceGraphic"/></filter><filter id="k" x="0" y="0.5" width="103" height="103" filterUnits="userSpaceOnUse"><feOffset dx="-1" dy="-1" input="SourceAlpha"/><feGaussianBlur stdDeviation="2.5" result="l"/><feFlood flood-opacity="0.102" result="m"/><feComposite operator="out" in="SourceGraphic" in2="l"/><feComposite operator="in" in="m"/><feComposite operator="in" in2="SourceGraphic"/></filter></defs><g transform="translate(21580.5 8306)"><rect width="100" height="100" transform="translate(-21579 -8306)" fill="rgba(255,0,0,0.1)" opacity="0"/><g data-type="innerShadowGroup"><path d="M7.317,2.506A37.73,37.73,0,0,1,22.137.023,37.758,37.758,0,0,1,36.954,2.509a10.858,10.858,0,0,1,7.315,9.975,7.669,7.669,0,0,1-1.115,4.161,8.766,8.766,0,0,1-3.97,3.251c-3.346,1.514-8.7,2.271-17.05,2.271S8.43,21.4,5.084,19.9a8.76,8.76,0,0,1-3.967-3.264A7.678,7.678,0,0,1,0,12.469,10.862,10.862,0,0,1,7.317,2.506" transform="translate(-21551.135 -8253.079)" fill-rule="evenodd" fill="url(#a)"/><g transform="matrix(1, 0, 0, 1, -21580.5, -8306)" filter="url(#b)"><path d="M7.317,2.506A37.73,37.73,0,0,1,22.137.023,37.758,37.758,0,0,1,36.954,2.509a10.858,10.858,0,0,1,7.315,9.975,7.669,7.669,0,0,1-1.115,4.161,8.766,8.766,0,0,1-3.97,3.251c-3.346,1.514-8.7,2.271-17.05,2.271S8.43,21.4,5.084,19.9a8.76,8.76,0,0,1-3.967-3.264A7.678,7.678,0,0,1,0,12.469,10.862,10.862,0,0,1,7.317,2.506" transform="translate(29.37 52.92)" fill="#fff" fill-rule="evenodd"/></g></g><g data-type="innerShadowGroup"><path d="M0,13.15A13.15,13.15,0,1,1,13.15,26.3,13.151,13.151,0,0,1,0,13.15" transform="translate(-21542.014 -8283.088)" fill-rule="evenodd" fill="url(#e)"/><g transform="matrix(1, 0, 0, 1, -21580.5, -8306)" filter="url(#f)"><path d="M0,13.15A13.15,13.15,0,1,1,13.15,26.3,13.151,13.151,0,0,1,0,13.15" transform="translate(38.49 22.91)" fill="#fff" fill-rule="evenodd"/></g></g><g data-type="innerShadowGroup"><g transform="matrix(1, 0, 0, 1, -21580.5, -8306)" filter="url(#i)"><path d="M-930-11017a44,44,0,0,1,44-44,44,44,0,0,1,44,44,44,44,0,0,1-44,44A44,44,0,0,1-930-11017Zm44,35a35.039,35.039,0,0,0,35-35,34.813,34.813,0,0,0-6.706-20.582l-48.876,48.876A34.808,34.808,0,0,0-886-10982Zm-35-35a34.824,34.824,0,0,0,7.257,21.315l49.06-49.06A34.831,34.831,0,0,0-886-11052,35.04,35.04,0,0,0-921-11017Z" transform="translate(937.5 11067)" fill="#ff001e" opacity="0.9"/></g><g transform="matrix(1, 0, 0, 1, -21580.5, -8306)" filter="url(#k)"><path d="M-930-11017a44,44,0,0,1,44-44,44,44,0,0,1,44,44,44,44,0,0,1-44,44A44,44,0,0,1-930-11017Zm44,35a35.039,35.039,0,0,0,35-35,34.813,34.813,0,0,0-6.706-20.582l-48.876,48.876A34.808,34.808,0,0,0-886-10982Zm-35-35a34.824,34.824,0,0,0,7.257,21.315l49.06-49.06A34.831,34.831,0,0,0-886-11052,35.04,35.04,0,0,0-921-11017Z" transform="translate(937.5 11067)" fill="#fff" opacity="0.9"/></g></g></g></svg>