<svg xmlns="http://www.w3.org/2000/svg" xmlns:xlink="http://www.w3.org/1999/xlink" width="72" height="72" viewBox="0 0 72 72"><defs><linearGradient id="a" x1="0.255" y1="-0.116" x2="0.853" y2="0.971" gradientUnits="objectBoundingBox"><stop offset="0" stop-color="#9195ff"/><stop offset="1" stop-color="#496980"/></linearGradient><clipPath id="b"><path d="M41.476,45.361V11.449a3.882,3.882,0,0,0-1.32-2.879L32.351,1.191A4.763,4.763,0,0,0,29.164,0H6.846C3.065,0,0,2.768,0,6.183V45.361c0,3.415,3.065,6.184,6.846,6.184H34.63c3.781,0,6.846-2.769,6.846-6.184" transform="translate(0 0.001)" fill="url(#a)"/></clipPath><linearGradient id="c" x1="0.165" y1="-0.174" x2="0.958" y2="1.077" gradientUnits="objectBoundingBox"><stop offset="0" stop-color="#c2a4ff"/><stop offset="1" stop-color="#9570e1"/></linearGradient><filter id="d"><feOffset dx="-1" dy="-1" input="SourceAlpha"/><feGaussianBlur stdDeviation="2" result="e"/><feFlood flood-color="#7f66b2" result="f"/><feComposite operator="out" in="SourceGraphic" in2="e"/><feComposite operator="in" in="f"/><feComposite operator="in" in2="SourceGraphic"/></filter><filter id="g"><feOffset dx="-2" dy="-2" input="SourceAlpha"/><feGaussianBlur stdDeviation="2" result="h"/><feFlood flood-color="#ffad1e" result="i"/><feComposite operator="out" in="SourceGraphic" in2="h"/><feComposite operator="in" in="i"/><feComposite operator="in" in2="SourceGraphic"/></filter><filter id="j" x="41.566" y="43.903" width="18.199" height="15.372" filterUnits="userSpaceOnUse"><feOffset dx="1" dy="1" input="SourceAlpha"/><feGaussianBlur stdDeviation="1" result="k"/><feFlood flood-color="#ecab4a"/><feComposite operator="in" in2="k"/><feComposite in="SourceGraphic"/></filter></defs><g transform="translate(16498 -5095)"><rect width="72" height="72" transform="translate(-16498 5095)" fill="red" opacity="0"/><g transform="translate(-16487.605 5104.413)"><g transform="translate(0 -0.001)" clip-path="url(#b)"><g data-type="innerShadowGroup"><path d="M41.476,43.581V11a3.669,3.669,0,0,0-1.32-2.766L32.351,1.145A4.877,4.877,0,0,0,29.164,0H6.846C3.065,0,0,2.659,0,5.94V43.581c0,3.281,3.065,5.941,6.846,5.941H34.63c3.781,0,6.846-2.66,6.846-5.941" transform="translate(0 0.001)" fill="url(#c)"/><g transform="matrix(1, 0, 0, 1, -10.39, -9.41)" filter="url(#d)"><path d="M41.476,43.581V11a3.669,3.669,0,0,0-1.32-2.766L32.351,1.145A4.877,4.877,0,0,0,29.164,0H6.846C3.065,0,0,2.659,0,5.94V43.581c0,3.281,3.065,5.941,6.846,5.941H34.63c3.781,0,6.846-2.66,6.846-5.941" transform="translate(10.39 9.41)" fill="#fff"/></g></g><path d="M659.818,13.858h12.028L657.459-1V11.727a2.254,2.254,0,0,0,2.359,2.131" transform="translate(-628.673 -2.396)" fill="#d8c5ff"/></g><rect width="41.476" height="51.546" transform="translate(0 -0.001)" fill="none"/><g transform="translate(6.019 17.28)"><rect width="20.38" height="2.4" rx="1.2" transform="translate(0 6.793)" fill="#fff"/><rect width="20.38" height="2.4" rx="1.2" transform="translate(0 13.587)" fill="#fff"/><rect width="11.888" height="2.4" rx="1.2" transform="translate(0 0)" fill="#fff"/></g><g transform="translate(-10.789 -6.539)"><g data-type="innerShadowGroup"><circle cx="12" cy="12" r="12" transform="translate(38 35.713)" fill="#ffce47"/><g transform="matrix(1, 0, 0, 1, 0.39, -2.87)" filter="url(#g)"><circle cx="12" cy="12" r="12" transform="translate(37.61 38.59)" fill="#fff"/></g></g><g transform="matrix(1, 0, 0, 1, 0.39, -2.87)" filter="url(#j)"><path d="M-7481.287-1721.038v-3.986h-2.9a.5.5,0,0,1-.407-.789l4.183-5.927a.5.5,0,0,1,.817,0l4.186,5.927a.5.5,0,0,1-.408.789h-2.9v3.986a1.285,1.285,0,0,1-1.287,1.287A1.286,1.286,0,0,1-7481.287-1721.038Z" transform="translate(-1676.19 7530.59) rotate(90)" fill="#fff"/></g></g></g></g></svg>