<svg xmlns="http://www.w3.org/2000/svg" width="20" height="20" viewBox="0 0 20 20"><g transform="translate(-60 -642)"><rect width="20" height="20" transform="translate(60 642)" fill="red" opacity="0"/><path d="M2.022,6.387A3.813,3.813,0,0,1,2,5.977,4.092,4.092,0,0,1,6.2,2,4.283,4.283,0,0,1,9.442,3.452,4.283,4.283,0,0,1,12.686,2a4.092,4.092,0,0,1,4.2,3.977q0,.13-.009.258a.2.2,0,0,1,.008.058c0,2.221-1.155,4.263-3.017,6.112a16.811,16.811,0,0,1-4.148,3.021l-.277.156A21.017,21.017,0,0,1,5.053,12.4,8.371,8.371,0,0,1,2,6.494.27.27,0,0,1,2.022,6.387Z" transform="translate(60.824 643.035)" fill="none" stroke="#555" stroke-width="1.3" fill-rule="evenodd"/></g></svg>