<svg xmlns="http://www.w3.org/2000/svg" xmlns:xlink="http://www.w3.org/1999/xlink" width="148" height="148" viewBox="0 0 148 148"><defs><linearGradient id="a" x1="0.178" y1="-0.021" x2="0.935" y2="1.058" gradientUnits="objectBoundingBox"><stop offset="0" stop-color="#eef3ff"/><stop offset="1" stop-color="#d2defa"/></linearGradient><filter id="b"><feOffset dx="-1" dy="-1" input="SourceAlpha"/><feGaussianBlur stdDeviation="2" result="c"/><feFlood flood-color="#aebcde" flood-opacity="0.8" result="d"/><feComposite operator="out" in="SourceGraphic" in2="c"/><feComposite operator="in" in="d"/><feComposite operator="in" in2="SourceGraphic"/></filter><linearGradient id="e" x1="0.314" y1="-0.077" x2="0.809" y2="1.308" gradientUnits="objectBoundingBox"><stop offset="0" stop-color="#e7edf8"/><stop offset="1" stop-color="#b9c6de"/></linearGradient><filter id="f"><feOffset dx="-1" dy="-1" input="SourceAlpha"/><feGaussianBlur stdDeviation="2" result="g"/><feFlood flood-color="#93a0bb" flood-opacity="0.4" result="h"/><feComposite operator="out" in="SourceGraphic" in2="g"/><feComposite operator="in" in="h"/><feComposite operator="in" in2="SourceGraphic"/></filter><linearGradient id="i" y1="-0.793" x2="0.986" y2="1.508" gradientUnits="objectBoundingBox"><stop offset="0" stop-color="#e3eaf6"/><stop offset="1" stop-color="#a5b9ec"/></linearGradient><filter id="j"><feOffset dx="-1" dy="-1" input="SourceAlpha"/><feGaussianBlur stdDeviation="1.5" result="k"/><feFlood flood-color="#4f71cf" result="l"/><feComposite operator="out" in="SourceGraphic" in2="k"/><feComposite operator="in" in="l"/><feComposite operator="in" in2="SourceGraphic"/></filter><filter id="m" x="56.402" y="52.103" width="64.414" height="64.414" filterUnits="userSpaceOnUse"><feOffset dx="-1" dy="-1" input="SourceAlpha"/><feGaussianBlur stdDeviation="1.5" result="n"/><feFlood flood-color="#4f71cf" result="o"/><feComposite operator="out" in="SourceGraphic" in2="n"/><feComposite operator="in" in="o"/><feComposite operator="in" in2="SourceGraphic"/></filter></defs><g transform="translate(-106 -208)"><rect width="148" height="148" transform="translate(106 208)" fill="#d81414" opacity="0"/><g transform="translate(2 5.469)"><rect width="98" height="120" rx="10" transform="translate(134 230.531)" fill="#eff4ff" opacity="0.8"/><g data-type="innerShadowGroup"><rect width="98" height="120" rx="10" transform="translate(124 221)" opacity="0.8" fill="url(#a)"/><g transform="matrix(1, 0, 0, 1, 104, 202.53)" filter="url(#b)"><rect width="98" height="120" rx="10" transform="translate(20 18.47)" fill="#fff" opacity="0.8"/></g></g><g data-type="innerShadowGroup"><path d="M64.447,7.526h-4.5A5.975,5.975,0,0,1,54.9,4.184,6.235,6.235,0,0,0,43.2,3.97c-.4.793-1.841,3.249-4.606,3.556H33.572a4.022,4.022,0,0,0-4.022,4.022v6.418a1.094,1.094,0,0,0,1.094,1.094H67.375a1.094,1.094,0,0,0,1.094-1.094V11.548a4.022,4.022,0,0,0-4.022-4.022" transform="translate(124.45 210.47)" fill="url(#e)"/><g transform="matrix(1, 0, 0, 1, 104, 202.53)" filter="url(#f)"><path d="M64.447,7.526h-4.5A5.975,5.975,0,0,1,54.9,4.184,6.235,6.235,0,0,0,43.2,3.97c-.4.793-1.841,3.249-4.606,3.556H33.572a4.022,4.022,0,0,0-4.022,4.022v6.418a1.094,1.094,0,0,0,1.094,1.094H67.375a1.094,1.094,0,0,0,1.094-1.094V11.548a4.022,4.022,0,0,0-4.022-4.022" transform="translate(20.45 7.94)" fill="#fff"/></g></g><path d="M11399.5-2620a2.5,2.5,0,0,1-2.5-2.5,2.5,2.5,0,0,1,2.5-2.5h53a2.5,2.5,0,0,1,2.5,2.5,2.5,2.5,0,0,1-2.5,2.5Zm0-12a2.5,2.5,0,0,1-2.5-2.5,2.5,2.5,0,0,1,2.5-2.5h53a2.5,2.5,0,0,1,2.5,2.5,2.5,2.5,0,0,1-2.5,2.5Zm0-12a2.5,2.5,0,0,1-2.5-2.5,2.5,2.5,0,0,1,2.5-2.5h53a2.5,2.5,0,0,1,2.5,2.5,2.5,2.5,0,0,1-2.5,2.5Zm0-12a2.5,2.5,0,0,1-2.5-2.5,2.5,2.5,0,0,1,2.5-2.5h53a2.5,2.5,0,0,1,2.5,2.5,2.5,2.5,0,0,1-2.5,2.5Z" transform="translate(-11253 2908)" fill="url(#i)"/></g><g transform="translate(16650.875 -4822.682)"><rect width="89" height="89" transform="translate(-16491.875 5080.682)" fill="red" opacity="0"/><g transform="translate(-16488.656 5082.785)"><rect width="9.202" height="16.564" transform="translate(47.864 55.231) rotate(-45)" fill="#203c67"/><g data-type="innerShadowGroup"><path d="M2,0H14.564a2,2,0,0,1,2,2V18.925a5,5,0,0,1-5,5H5a5,5,0,0,1-5-5V2A2,2,0,0,1,2,0Z" transform="translate(54.372 66.944) rotate(-45)" fill="#5c87fc"/><g transform="matrix(1, 0, 0, 1, -56.22, -52.1)" filter="url(#j)"><path d="M2,0H14.564a2,2,0,0,1,2,2V18.925a5,5,0,0,1-5,5H5a5,5,0,0,1-5-5V2A2,2,0,0,1,2,0Z" transform="translate(110.59 119.05) rotate(-45)" fill="#fff"/></g></g><circle cx="31.751" cy="31.751" r="31.751" transform="translate(0 0.111)" fill="#e7f0ff"/><g data-type="innerShadowGroup"><path d="M32.207,9.2A23.005,23.005,0,1,0,48.474,15.94,22.855,22.855,0,0,0,32.207,9.2m0-9.2A32.207,32.207,0,1,1,0,32.207,32.207,32.207,0,0,1,32.207,0Z" transform="translate(0.184 0)" fill="#6991ff"/><g transform="matrix(1, 0, 0, 1, -56.22, -52.1)" filter="url(#m)"><path d="M32.207,9.2A23.005,23.005,0,1,0,48.474,15.94,22.855,22.855,0,0,0,32.207,9.2m0-9.2A32.207,32.207,0,1,1,0,32.207,32.207,32.207,0,0,1,32.207,0Z" transform="translate(56.4 52.1)" fill="#fff"/></g></g></g></g></g></svg>