<svg xmlns="http://www.w3.org/2000/svg" xmlns:xlink="http://www.w3.org/1999/xlink" width="72" height="72" viewBox="0 0 72 72"><defs><linearGradient id="a" x1="0.142" y1="0.08" x2="0.804" y2="0.933" gradientUnits="objectBoundingBox"><stop offset="0" stop-color="#008dff"/><stop offset="1" stop-color="#004d8d"/></linearGradient><linearGradient id="b" x1="0.259" y1="0.082" x2="0.811" y2="0.902" gradientUnits="objectBoundingBox"><stop offset="0" stop-color="#42c89a"/><stop offset="1" stop-color="#2fb878"/></linearGradient><filter id="c" x="43.403" y="42.835" width="23.191" height="20.33" filterUnits="userSpaceOnUse"><feOffset dx="1" dy="1" input="SourceAlpha"/><feGaussianBlur stdDeviation="2" result="d"/><feFlood flood-color="#25a168"/><feComposite operator="in" in2="d"/><feComposite in="SourceGraphic"/></filter></defs><g transform="translate(18802 -1456)"><rect width="72" height="72" transform="translate(-18802 1456)" fill="red" opacity="0"/><g transform="translate(-18796.25 1465.749)"><circle cx="26" cy="26" r="26" transform="translate(-0.751 -0.748)" fill="url(#a)"/><g transform="translate(12.651 9.921)"><path d="M5,7.5l12.6,7.2m0,0L30.2,7.5M17.6,14.7v9.9m0,6.3V27.745m0-3.149h2.7m-2.7,0v3.149m0,0h2.7" transform="translate(-5 -0.233)" fill="none" stroke="#f59d24" stroke-linecap="round" stroke-width="2.4"/><path d="M5,18l8.1-4.5" transform="translate(-5 4.565)" fill="none" stroke="#fff" stroke-linecap="round" stroke-width="2.4"/><path d="M22.6,18l-8.1-4.5" transform="translate(2.596 4.565)" fill="none" stroke="#fff" stroke-linecap="round" stroke-width="2.4"/><path d="M16.218,6.484A2.734,2.734,0,1,1,13.484,3.75,2.734,2.734,0,0,1,16.218,6.484Z" transform="translate(-0.885 -3.75)" fill="none" stroke="#fff" stroke-width="2.4"/><path d="M12.148,6.5V11" transform="translate(0.54 -1.033)" fill="none" stroke="#fff" stroke-linecap="round" stroke-width="2.4"/></g><g transform="translate(-236.75 -470.749)"><circle cx="12" cy="12" r="12" transform="translate(273 501)" fill="url(#b)"/><g transform="matrix(1, 0, 0, 1, 231, 461)" filter="url(#c)"><path d="M3.8,7.93a.86.86,0,0,1-.607-.251L.251,4.736A.858.858,0,0,1,1.465,3.522L3.8,5.854,9.322.255a.858.858,0,0,1,1.222,1.206L4.412,7.674A.859.859,0,0,1,3.8,7.93Z" transform="translate(48.6 48.04)" fill="#fff" stroke="#fff" stroke-width="0.4"/></g></g></g></g></svg>