<svg xmlns="http://www.w3.org/2000/svg" width="20" height="20" viewBox="0 0 20 20"><rect width="20" height="20" fill="red" opacity="0"/><g transform="translate(2 2.172)"><path d="M15.431,10.448a2.587,2.587,0,0,0-2.586,2.586v1.035a2.583,2.583,0,0,0,2.132,2.544,1.126,1.126,0,0,0,.392,0A2.583,2.583,0,0,0,17.5,14.069V3a2,2,0,0,0-2-2H5.9a2,2,0,0,0-2,2v7.5" transform="translate(-1.5 -1)" fill="none" stroke="#555" stroke-linecap="round" stroke-linejoin="round" stroke-width="1.3"/><path d="M12.845,14.07V13.035a2.587,2.587,0,0,1,2.586-2.586H4.086A2.587,2.587,0,0,0,1.5,13.035V14.07a2.587,2.587,0,0,0,2.586,2.586H14.914a1.42,1.42,0,0,0,.259-.015A2.583,2.583,0,0,1,12.845,14.07Z" transform="translate(-1.5 -1)" fill="none" stroke="#555" stroke-linecap="round" stroke-linejoin="round" stroke-width="1.3"/></g><g transform="translate(7.15 6)"><line x2="5.7" fill="none" stroke="#555" stroke-linecap="round" stroke-width="1.3"/></g></svg>