<svg xmlns="http://www.w3.org/2000/svg" xmlns:xlink="http://www.w3.org/1999/xlink" width="48" height="48" viewBox="0 0 48 48"><defs><linearGradient id="a" x1="0.213" y1="0.21" x2="0.892" y2="1.163" gradientUnits="objectBoundingBox"><stop offset="0" stop-color="#5d9fff"/><stop offset="1" stop-color="#165abc"/></linearGradient><filter id="b" x="8.826" y="12.327" width="33.347" height="33.347" filterUnits="userSpaceOnUse"><feOffset dx="1" dy="1" input="SourceAlpha"/><feGaussianBlur stdDeviation="1.5" result="c"/><feFlood flood-opacity="0.302"/><feComposite operator="in" in2="c"/><feComposite in="SourceGraphic"/></filter></defs><g transform="translate(18312 -1531)"><rect width="48" height="48" transform="translate(-18312 1531)" fill="red" opacity="0"/><g transform="translate(0 1)"><rect width="44" height="38" rx="9" transform="translate(-18310 1539)" fill="url(#a)"/><circle cx="2.5" cy="2.5" r="2.5" transform="translate(-18276 1544)" fill="#f4d00c"/><g transform="translate(0 -0.5)"><g transform="matrix(1, 0, 0, 1, -18312, 1530.5)" filter="url(#b)"><g transform="translate(12.33 15.83)" fill="none" stroke="#b1d1ff" stroke-width="4" opacity="0.5"><circle cx="12.173" cy="12.173" r="12.173" stroke="none"/><circle cx="12.173" cy="12.173" r="10.173" fill="none"/></g></g><circle cx="9.468" cy="9.468" r="9.468" transform="translate(-18296.969 1549.032)" fill="#bad6ff"/><path d="M0,0A5.871,5.871,0,0,1,5.87,5.871" transform="translate(-18293.361 1558.335) rotate(-90)" fill="none" stroke="#fff" stroke-linecap="round" stroke-linejoin="round" stroke-width="1.5"/></g></g></g></svg>