<svg xmlns="http://www.w3.org/2000/svg" xmlns:xlink="http://www.w3.org/1999/xlink" width="100" height="100" viewBox="0 0 100 100"><defs><linearGradient id="a" x1="0.265" y1="0.265" x2="1" y2="1.047" gradientUnits="objectBoundingBox"><stop offset="0" stop-color="#f0f3fa"/><stop offset="1" stop-color="#d9dde6"/></linearGradient><filter id="b"><feOffset dx="-1" dy="-2" input="SourceAlpha"/><feGaussianBlur stdDeviation="3" result="c"/><feFlood flood-color="#c1c7d9" result="d"/><feComposite operator="out" in="SourceGraphic" in2="c"/><feComposite operator="in" in="d"/><feComposite operator="in" in2="SourceGraphic"/></filter><clipPath id="e"><rect width="12.408" height="60.192" fill="none"/></clipPath></defs><g transform="translate(17793 -1537)"><rect width="100" height="100" transform="translate(-17793 1537)" fill="#ff3636" opacity="0"/><g data-type="innerShadowGroup"><rect width="100" height="70" rx="10" transform="translate(-17793 1552)" fill="url(#a)"/><g transform="matrix(1, 0, 0, 1, -17793, 1537)" filter="url(#b)"><rect width="100" height="70" rx="10" transform="translate(0 15)" fill="#fff"/></g></g><rect width="27" height="3.4" rx="1.7" transform="translate(-17783.344 1566.3)" fill="#b6bdce"/><rect width="40.344" height="3.4" rx="1.7" transform="translate(-17783.344 1574.3)" fill="#b6bdce"/><path d="M20.748,19.722c5.772-.305,11.5-2.364,16.705-4.787a26.906,26.906,0,0,0,5.448-3.2,6.2,6.2,0,0,0,1.621-1.752,2.755,2.755,0,0,0,.254-2.311,2.8,2.8,0,0,0-2.163-1.589c-3.364-.591-6.67,2.018-8.482,4.583C32.1,13.553,31.355,16.983,29.8,20.1a22.6,22.6,0,0,1-6.184,7.753q-.222.175-.448.343A22.775,22.775,0,0,1,9.3,32.678a5.379,5.379,0,0,1-1.915-.293,2.159,2.159,0,0,1-1.321-1.338,2.129,2.129,0,0,1,.387-1.766,4.9,4.9,0,0,1,1.4-1.222,23.489,23.489,0,0,1,8.872-3c4.624-.773,9.185-1.3,13.626-2.9A44.318,44.318,0,0,0,42.192,15.75a17.712,17.712,0,0,0-1.283,2.939,1.7,1.7,0,0,0-.114.956c.247.929,1.6.833,2.5.488a33.717,33.717,0,0,0,6.159-3.123A2.743,2.743,0,0,0,51.99,19.3a7.751,7.751,0,0,0,3.6-.753,8.577,8.577,0,0,1,3.589-.839" transform="translate(-17775.59 1581)" fill="none" stroke="#111" stroke-linecap="round" stroke-linejoin="round" stroke-miterlimit="10" stroke-width="2.5"/><g transform="translate(-17715.41 1540.587)"><rect width="4.13" height="40.592" transform="translate(0.007 10.048)" fill="#fece66"/><rect width="4.134" height="40.592" transform="translate(4.137 10.048)" fill="#fece66"/><rect width="4.129" height="40.593" transform="translate(8.27 10.048)" fill="#f5b540"/><path d="M4.148,94.732H8.273l4.139-6.371H.015Z" transform="translate(-0.005 -37.719)" fill="#fff"/><path d="M11.967,88.361l-1.382,6.372h1.38L16.1,88.36Z" transform="translate(-3.697 -37.72)" fill="#cccbca"/><path d="M6.366,98.152l2.058,3.18,2.067-3.181Z" transform="translate(-2.223 -41.139)" fill="#343b43"/><rect width="4.129" height="3.675" transform="translate(8.27 6.372)" fill="#cccbca"/><rect width="8.263" height="3.675" transform="translate(0.007 6.373)" fill="#fff"/><g clip-path="url(#e)"><path d="M14.62,4.951v.77H10.489v-.77a4.5,4.5,0,0,0-1.812-3.5A6.558,6.558,0,0,0,6.357.287,7.556,7.556,0,0,1,8.42,0a7.078,7.078,0,0,1,4.388,1.45,4.494,4.494,0,0,1,1.812,3.5" transform="translate(-2.22)" fill="#ef523c"/><path d="M8.269,5.155v.77H0l0-.768a4.5,4.5,0,0,1,1.817-3.5A6.613,6.613,0,0,1,4.137.491,6.568,6.568,0,0,1,6.457,1.653a4.506,4.506,0,0,1,1.812,3.5" transform="translate(0 -0.204)" fill="#ff7a5e"/></g></g></g></svg>