<svg xmlns="http://www.w3.org/2000/svg" xmlns:xlink="http://www.w3.org/1999/xlink" width="72" height="72" viewBox="0 0 72 72"><defs><linearGradient id="a" x1="0.227" y1="-0.323" x2="0.844" y2="1.362" gradientUnits="objectBoundingBox"><stop offset="0" stop-color="#c1f2fc"/><stop offset="1" stop-color="#6ecbdf"/></linearGradient><filter id="b"><feOffset dx="-1" dy="-1" input="SourceAlpha"/><feGaussianBlur stdDeviation="0.5" result="c"/><feFlood flood-color="#2a9cb9" result="d"/><feComposite operator="out" in="SourceGraphic" in2="c"/><feComposite operator="in" in="d"/><feComposite operator="in" in2="SourceGraphic"/></filter><linearGradient id="e" x1="0.215" x2="0.739" y2="1" gradientUnits="objectBoundingBox"><stop offset="0" stop-color="#36b6d6"/><stop offset="1" stop-color="#2a9cb9"/></linearGradient></defs><g transform="translate(16486 -5095)"><rect width="72" height="72" transform="translate(-16486 5095)" fill="red" opacity="0"/><g transform="translate(-16481.115 5111.775)"><rect width="62" height="40" rx="6" transform="translate(0.116 -0.775)" fill="url(#a)"/><g transform="translate(8.114 9.224)"><g data-type="innerShadowGroup"><circle cx="4" cy="4" r="4" transform="translate(5)" fill="#32afce"/><g transform="matrix(1, 0, 0, 1, -13, -26)" filter="url(#b)"><circle cx="4" cy="4" r="4" transform="translate(18 26)" fill="#fff"/></g></g><path d="M6.667,0h4.667A6.667,6.667,0,0,1,18,6.667v0A3.333,3.333,0,0,1,14.667,10H3.333A3.333,3.333,0,0,1,0,6.667v0A6.667,6.667,0,0,1,6.667,0Z" transform="translate(0 10)" fill="url(#e)"/></g><g transform="translate(32.116 15.025)"><rect width="22" height="2.4" rx="1.2" transform="translate(0)" fill="#fff"/><rect width="16" height="2.4" rx="1.2" transform="translate(0 5.998)" fill="#fff"/></g></g></g></svg>