<svg xmlns="http://www.w3.org/2000/svg" xmlns:xlink="http://www.w3.org/1999/xlink" width="40" height="41" viewBox="0 0 40 41"><defs><linearGradient id="a" x1="0.264" x2="0.847" y2="1.01" gradientUnits="objectBoundingBox"><stop offset="0" stop-color="#ccaef9"/><stop offset="1" stop-color="#b987eb"/></linearGradient><filter id="b"><feOffset dx="-2" dy="-2" input="SourceAlpha"/><feGaussianBlur stdDeviation="3" result="c"/><feFlood flood-opacity="0.161" result="d"/><feComposite operator="out" in="SourceGraphic" in2="c"/><feComposite operator="in" in="d"/><feComposite operator="in" in2="SourceGraphic"/></filter><filter id="e" x="14" y="16" width="25" height="25" filterUnits="userSpaceOnUse"><feOffset dy="1" input="SourceAlpha"/><feGaussianBlur stdDeviation="1" result="f"/><feFlood flood-opacity="0.161"/><feComposite operator="in" in2="f"/><feComposite in="SourceGraphic"/></filter><filter id="g" x="14" y="16" width="25" height="25" filterUnits="userSpaceOnUse"><feOffset dx="-1" dy="-1" input="SourceAlpha"/><feGaussianBlur stdDeviation="1.5" result="h"/><feFlood flood-color="#3363a1" result="i"/><feComposite operator="out" in="SourceGraphic" in2="h"/><feComposite operator="in" in="i"/><feComposite operator="in" in2="SourceGraphic"/></filter></defs><g transform="translate(16850 -545)"><g transform="translate(1952 -915)"><rect width="40" height="40" transform="translate(-18802 1460)" fill="none" opacity="0"/><g transform="translate(0 -1)"><g data-type="innerShadowGroup"><rect width="30.658" height="24.369" rx="4" transform="translate(-18797.807 1469.315)" fill="url(#a)"/><g transform="matrix(1, 0, 0, 1, -18802, 1461)" filter="url(#b)"><rect width="30.658" height="24.369" rx="4" transform="translate(4.19 8.32)" fill="#fff"/></g></g><rect width="30.658" height="1.729" transform="translate(-18797.807 1475.604)" fill="#fff"/></g></g><g transform="translate(-16885.5 233)"><g data-type="innerShadowGroup"><g transform="matrix(1, 0, 0, 1, 35.5, 312)" filter="url(#e)"><circle cx="9.5" cy="9.5" r="9.5" transform="translate(17 18)" fill="#659de6"/></g><g transform="matrix(1, 0, 0, 1, 35.5, 312)" filter="url(#g)"><circle cx="9.5" cy="9.5" r="9.5" transform="translate(17 18)" fill="#fff"/></g></g><g transform="translate(0.5)"><g transform="translate(56 334)" fill="none" stroke="#fff" stroke-width="1.5"><circle cx="5" cy="5" r="5" stroke="none"/><circle cx="5" cy="5" r="4.25" fill="none"/></g><path d="M63.866,342.106l1.992,1.992" fill="none" stroke="#fff" stroke-linecap="round" stroke-width="1.5"/></g></g></g></svg>