<svg xmlns="http://www.w3.org/2000/svg" xmlns:xlink="http://www.w3.org/1999/xlink" width="95" height="14" viewBox="0 0 95 14"><defs><clipPath id="a"><rect width="16" height="14" fill="#fff"/></clipPath></defs><g transform="translate(-48 -128)"><rect width="94" height="14" transform="translate(49 128)" fill="red" opacity="0"/><g transform="translate(48 128)"><path d="M110.333,11.729h3.44v1.108h-3.44Zm4.923,2.467h-6.4V13.1h6.4Zm-3.2,4.123a3.265,3.265,0,0,1-2-.559,1.657,1.657,0,0,1-.758-1.382,1.689,1.689,0,0,1,.758-1.393,3.265,3.265,0,0,1,2-.559,3.324,3.324,0,0,1,2.014.559,1.706,1.706,0,0,1,.747,1.393,1.673,1.673,0,0,1-.747,1.382A3.324,3.324,0,0,1,112.053,18.319Zm0-1.031a1.272,1.272,0,0,0,.8-.252.792.792,0,0,0,.328-.658.842.842,0,0,0-.328-.669,1.342,1.342,0,0,0-.8-.252,1.261,1.261,0,0,0-.792.252.822.822,0,0,0-.339.669.774.774,0,0,0,.339.658A1.2,1.2,0,0,0,112.053,17.288Zm5.839-2.95h1.4v1.25h-1.4v3.323h-1.664V11.926h1.664Zm-5.217,6.042h5.262v1.162H112.11c-1.267,0-1.89-.57-1.89-1.722V18.692h1.675v.91A.686.686,0,0,0,112.676,20.381Z" transform="translate(-91.013 -9.725)" fill="#111"/><path d="M175.232,11.729h3.44v1.108h-3.44Zm4.9,2.468h-6.405V13.1h6.405Zm-4.006,4.058a2.668,2.668,0,0,1-1.222-.5,1.642,1.642,0,0,1-.736-1.371,1.689,1.689,0,0,1,.758-1.393,3.265,3.265,0,0,1,2-.559,3.323,3.323,0,0,1,2.014.559,1.706,1.706,0,0,1,.747,1.393,1.671,1.671,0,0,1-.736,1.371,2.732,2.732,0,0,1-1.154.493v.877h1.369c1.222,0,1.845-.472,1.856-1.437V11.926h1.664v3.191h1.4v1.2h-1.4v5.253h-1.664V19.888a2.623,2.623,0,0,1-1.618.406h-5.9V19.121h2.614Zm.8-.965a1.272,1.272,0,0,0,.8-.252.792.792,0,0,0,.328-.658.842.842,0,0,0-.328-.669,1.341,1.341,0,0,0-.8-.252,1.261,1.261,0,0,0-.792.252.822.822,0,0,0-.34.669.774.774,0,0,0,.34.658A1.2,1.2,0,0,0,176.93,17.289Z" transform="translate(-145.08 -9.725)" fill="#111"/><path d="M241.812,14.567v-.23H239.5V13.1h6.258v1.238h-2.3v.23a5.9,5.9,0,0,0,.826,3.495,4.18,4.18,0,0,0,1.686,1.38v1.249a6.114,6.114,0,0,1-2.886-1.764,3.251,3.251,0,0,1-.453-.613,3.831,3.831,0,0,1-.453.613,6.115,6.115,0,0,1-2.886,1.764V19.443a4.337,4.337,0,0,0,1.686-1.38A5.987,5.987,0,0,0,241.812,14.567Zm5.24-1.621h1.663v9.641h-1.663V17.076h-2.2V15.805h2.2Z" transform="translate(-200.062 -10.734)" fill="#111"/><path d="M311.954,14.814h-3.18a2.262,2.262,0,0,0,.724.548,5.573,5.573,0,0,0,2.6.461V16.9a8.609,8.609,0,0,1-3.327-.493,4.1,4.1,0,0,1-1.1-.625,4.287,4.287,0,0,1-1.1.625,8.681,8.681,0,0,1-3.327.493V15.823a5.6,5.6,0,0,0,2.6-.461,2.4,2.4,0,0,0,.724-.548h-3.191V13.728h8.566ZM305.39,12.27h4.549v1.1H305.39Zm-2.84,4.956h10.241v1.129h-4.278V19.1h2.331a.7.7,0,0,1,.792.779v2.2h-1.675V20.231h-6.3V19.1h3.157v-.746H302.55Z" transform="translate(-252.965 -10.173)" fill="#111"/><path d="M370.7,15.137c0,.329.2.559.611.712a5.064,5.064,0,0,0,1.8.241,5.264,5.264,0,0,0,1.811-.241c.419-.153.634-.383.634-.712s-.215-.57-.634-.734a5.6,5.6,0,0,0-1.811-.241,5.255,5.255,0,0,0-1.788.241C370.9,14.567,370.7,14.808,370.7,15.137Zm-1.709.011a1.758,1.758,0,0,1,1.075-1.643,6.732,6.732,0,0,1,3.055-.559,7.023,7.023,0,0,1,3.067.548,1.776,1.776,0,0,1,1.075,1.643,1.729,1.729,0,0,1-1.075,1.632,7.007,7.007,0,0,1-3.067.537,6.919,6.919,0,0,1-3.055-.537A1.708,1.708,0,0,1,368.991,15.148Zm9.257,3.888H368.006v-1.26h10.241Zm-6.586,2.278h5.511v1.238h-6.19c-1.2,0-1.788-.624-1.788-1.873V19.562h1.675v.92C370.869,21.041,371.129,21.314,371.661,21.314Z" transform="translate(-308.124 -10.734)" fill="#111"/><path d="M433.824,11.864h3.123v1.054h-3.123Zm4.3,2.361H432.6V13.182h5.522Zm-2.75.209a3.112,3.112,0,0,1,1.845.516,1.632,1.632,0,0,1,.713,1.362,1.58,1.58,0,0,1-.713,1.34,3.036,3.036,0,0,1-1.845.516,2.943,2.943,0,0,1-1.822-.516,1.58,1.58,0,0,1-.713-1.34,1.632,1.632,0,0,1,.713-1.362A3.015,3.015,0,0,1,435.374,14.434Zm0,1.01a1.033,1.033,0,0,0-.7.231.817.817,0,0,0-.272.637.756.756,0,0,0,.272.615,1.032,1.032,0,0,0,.7.231,1.116,1.116,0,0,0,.724-.231.756.756,0,0,0,.272-.615.817.817,0,0,0-.272-.637A1.116,1.116,0,0,0,435.374,15.445Zm5.432-3.4h1.573v5.766h-1.573V15.544h-.7v2.065h-1.55V12.04h1.55v2.252h.7Zm1.233,7.908a1.684,1.684,0,0,1-.917,1.483,4.385,4.385,0,0,1-2.342.571,4.318,4.318,0,0,1-2.331-.571,1.649,1.649,0,0,1,0-2.965,4.418,4.418,0,0,1,2.331-.56,4.487,4.487,0,0,1,2.342.56A1.684,1.684,0,0,1,442.04,19.948Zm-3.259-.956a2.176,2.176,0,0,0-1.154.264.812.812,0,0,0-.441.692.759.759,0,0,0,.43.681,2.091,2.091,0,0,0,1.166.275,2.275,2.275,0,0,0,1.165-.264.771.771,0,0,0,.43-.692.812.812,0,0,0-.441-.692A2.232,2.232,0,0,0,438.781,18.992Z" transform="translate(-361.683 -9.837)" fill="#111"/><g clip-path="url(#a)"><path d="M29.745,25.786c-.207-1.842,1.764-3.319,4.4-3.3s4.941,1.535,5.148,3.369-1.762,3.319-4.4,3.3S29.952,27.628,29.745,25.786Zm10.038.572c-.237-2.284-2.891-4.156-5.926-4.181s-5.3,1.809-5.064,4.094,2.891,4.154,5.926,4.179S40.023,28.643,39.784,26.359Z" transform="translate(-23.861 -18.524)" fill="#fbb584"/><path d="M33.1,39.909a3.846,3.846,0,0,1-5.357.275,3.657,3.657,0,0,1,.056-5.248,3.858,3.858,0,0,1,5.354-.285,3.659,3.659,0,0,1-.056,5.248ZM27.56,34.885A4.265,4.265,0,0,0,27.5,41a4.476,4.476,0,0,0,6.227-.33,4.267,4.267,0,0,0,.064-6.113A4.476,4.476,0,0,0,27.56,34.885Z" transform="translate(-21.754 -27.938)" fill="#f89b6c"/><path d="M5.966,1.316C9.074.174,12.149,1.329,12.833,3.9s-1.275,5.573-4.391,6.715-6.186-.017-6.866-2.579S2.851,2.458,5.966,1.316ZM3.08,2.3C-.145,4.8-.966,8.426,1.244,10.4s6.629,1.539,9.847-.962S15.138,3.3,12.925,1.346,6.3-.193,3.08,2.308" transform="translate(-0.002 -0.096)" fill="#f37321"/></g></g></g></svg>