<svg xmlns="http://www.w3.org/2000/svg" width="141" height="38" viewBox="0 0 141 38"><g transform="translate(6.175 4.665)"><path d="M47.9,42.064c-.407-3.724,3.479-6.716,8.678-6.674s9.748,3.092,10.155,6.82-3.476,6.719-8.678,6.678S48.307,45.8,47.9,42.068m19.8,1.156C67.233,38.6,62,34.818,56.012,34.769s-10.455,3.658-9.986,8.277,5.706,8.409,11.691,8.458,10.455-3.658,9.986-8.281" transform="translate(-36.292 -27.367)" fill="#fab483"/><path d="M57.044,58.649a7.461,7.461,0,0,1-10.566.573,7.562,7.562,0,0,1,.107-10.644,7.465,7.465,0,0,1,10.569-.573,7.563,7.563,0,0,1-.11,10.644M46.123,48.48A8.792,8.792,0,0,0,46,60.85a8.676,8.676,0,0,0,12.285-.666,8.792,8.792,0,0,0,.128-12.369,8.676,8.676,0,0,0-12.285.666" transform="translate(-34.67 -34.422)" fill="#f89a5c"/><path d="M29.654,15.909c6.13-2.311,12.195.028,13.541,5.22s-2.53,11.276-8.66,13.588S22.343,34.689,20.99,29.5s2.53-11.276,8.664-13.588m-5.7,1.985c-6.362,5.064-7.98,12.4-3.617,16.388S33.4,37.4,39.764,32.332s7.98-12.4,3.617-16.388-13.058-3.113-19.419,1.95" transform="translate(-17.891 -13.443)" fill="#f37320"/></g><rect width="141" height="38" fill="none"/><g transform="translate(41.773 11.349)"><g transform="translate(10.904 0.659)"><path d="M156.927,39.744V38.2h-2.064V34.85H152.85v9.884h2.012V39.747h2.064Z" transform="translate(-152.767 -34.763)" fill="#221e1f"/><path d="M154.709,44.658h-2.1V34.687h0V34.6h2.185v3.349h2.064v.51h0v1.118h0v.087H154.8v3.55h0v1.35h0v.087h-.086Zm-.086-.174V43.221h0V39.584h0V39.5h2.064V38.466h0v-.34h-2.061V34.777h-1.84v9.711h1.84Zm2.15-4.9v0Z" transform="translate(-152.61 -34.6)" fill="#221e1f"/></g><g transform="translate(2.04 10.245)"><path d="M138.056,65.646H130.49a1.193,1.193,0,0,1-.963-.416,1.77,1.77,0,0,1-.328-1.277V62.47H127.18v2.277c0,.611.148,2.429,2.713,2.44h8.163Z" transform="translate(-127.094 -62.383)" fill="#221e1f"/><path d="M137.893,67.11h-8.163c-2.606-.007-2.8-1.888-2.8-2.516h0v-.01h0V62.22h2.192v1.645h0a1.607,1.607,0,0,0,.3,1.145h0a1.122,1.122,0,0,0,.9.385h7.566v0h.086V67.11h-.086ZM127.1,64.587h0c.014.618.131,2.329,2.627,2.35h8.077V65.569h-7.48a1.286,1.286,0,0,1-1.029-.444h0a1.773,1.773,0,0,1-.349-1.26h0v-.073h0V62.4H127.1V64.59h0Z" transform="translate(-126.93 -62.22)" fill="#221e1f"/></g><g transform="translate(2.126)"><rect width="4.601" height="1.315" transform="translate(0.086 0.087)" fill="#221e1f"/><path d="M127.18,34.189V32.7h4.77v1.489Zm4.687-.087v0Zm-4.515-.087h4.429V32.874h-4.429v1.142Z" transform="translate(-127.18 -32.7)" fill="#221e1f"/></g><g transform="translate(0.642 3.498)"><path d="M126.958,43.03c-2.268,0-3.828,1.326-3.828,2.957,0,1.43,1.553,2.957,3.828,2.957s3.828-1.569,3.828-2.957c0-1.631-1.484-2.957-3.828-2.957m-.014,4.654a1.826,1.826,0,0,1-1.9-1.756,1.94,1.94,0,0,1,3.835.01,1.848,1.848,0,0,1-1.93,1.746Z" transform="translate(-123.044 -42.943)" fill="#221e1f"/><path d="M122.88,45.824c0-1.694,1.615-3.04,3.914-3.044h0v.174c-2.237,0-3.738,1.3-3.742,2.87h0c0,1.364,1.5,2.867,3.742,2.87h0c2.282,0,3.738-1.544,3.742-2.87h0c0-1.572-1.429-2.867-3.742-2.87h0V42.78c2.371,0,3.914,1.35,3.914,3.044h0c0,1.454-1.557,3.044-3.914,3.044h0c-2.313,0-3.911-1.551-3.914-3.044h0Zm3.9,1.784a1.913,1.913,0,0,1-1.988-1.836h0v-.01h0a1.837,1.837,0,0,1,1.992-1.718h.014a1.846,1.846,0,0,1,2,1.728h-.031l.031.007a1.926,1.926,0,0,1-1.974,1.829h-.041Zm0-.087v0Zm0-.087h0a1.763,1.763,0,0,0,1.843-1.645h0v-.021h0a1.675,1.675,0,0,0-1.84-1.555h0a1.661,1.661,0,0,0-1.819,1.551h0v.007a1.742,1.742,0,0,0,1.8,1.662h.017Z" transform="translate(-122.88 -42.78)" fill="#221e1f"/></g><g transform="translate(0 1.773)"><path d="M130.227,38.06H121.27v1.27h8.957Z" transform="translate(-121.184 -37.973)" fill="#221e1f"/><path d="M121.02,39.254v-.993h0V37.9h0V37.81h9.044v0h.086v1.357h0v.087Zm8.957-.174v-1.1h-8.785v.278h0v.819Z" transform="translate(-121.02 -37.81)" fill="#221e1f"/></g><g transform="translate(16.896)"><g transform="translate(2.233)"><rect width="4.601" height="1.315" transform="translate(0.086 0.087)" fill="#221e1f"/><path d="M176.44,34.189V32.7h4.77v1.489Zm4.687-.087v0Zm-4.515-.087h4.429V32.874h-4.429v1.142Z" transform="translate(-176.44 -32.7)" fill="#221e1f"/></g><g transform="translate(0 0.652)"><path d="M183.253,39.661V34.83h-2.009v8.593a2.194,2.194,0,0,1-.849,1.812v-.007a4.973,4.973,0,0,1-2.24.493h-2.24V43.458a3.256,3.256,0,0,0,2.717-2.825c0-1.631-1.484-2.957-3.828-2.957s-3.828,1.326-3.828,2.957A3.291,3.291,0,0,0,173.9,43.5v2.218H170.23v1.548h8c.069,0,2.209-.01,2.962-.809a.377.377,0,0,0,.059-.083v2.763h2.009V41.2h2.064V39.661h-2.064m-8.464,2.665a1.83,1.83,0,0,1-1.905-1.756,1.938,1.938,0,0,1,3.831.01,1.848,1.848,0,0,1-1.93,1.746Z" transform="translate(-170.14 -34.743)" fill="#221e1f"/><path d="M180.988,49.063V46.439a5.571,5.571,0,0,1-2.934.753H169.97V45.558h0v-.087h3.669V43.409a3.362,3.362,0,0,1-2.924-2.943h0c0-1.694,1.619-3.04,3.914-3.044h0c2.371,0,3.914,1.354,3.914,3.044h0a3.326,3.326,0,0,1-2.72,2.891h0v2.11h2.157a4.9,4.9,0,0,0,2.188-.475h0l.086-.059a2.147,2.147,0,0,0,.725-1.673h0V34.58h2.182v4.831h2.064v1.624h0v.087h-2.064v7.941h-2.182Zm.173-2.849v2.676H183V40.949h2.064V39.585h-1.978V39.5H183V34.754h-1.836V43.26a2.272,2.272,0,0,1-.887,1.881h0l-.162.115v-.024a5.33,5.33,0,0,1-2.1.41h-2.351V43.222l.066-.017a3.175,3.175,0,0,0,2.651-2.742h0c0-1.572-1.429-2.867-3.742-2.87h0c-2.237,0-3.738,1.3-3.742,2.87h0a3.209,3.209,0,0,0,2.851,2.787h0l.069.014v2.377h-3.669v1.378h7.911c.059.007,2.206-.024,2.893-.777h0l.048-.059h0l.166.031h0Zm-6.541-3.963a1.914,1.914,0,0,1-1.992-1.836h0V40.4h0a1.836,1.836,0,0,1,2-1.718h.014a1.843,1.843,0,0,1,2,1.728h0v.01h0a1.929,1.929,0,0,1-1.974,1.829h-.041Zm0-.087v0Zm-.021-.087h.021a1.758,1.758,0,0,0,1.84-1.649h0v-.017h0a1.677,1.677,0,0,0-1.84-1.555h0a1.662,1.662,0,0,0-1.823,1.551h0v.007h0v.007h0a1.744,1.744,0,0,0,1.8,1.659h0Z" transform="translate(-169.97 -34.58)" fill="#221e1f"/></g><g transform="translate(0.107 1.773)"><path d="M179.487,38.06H170.53v1.27h8.957Z" transform="translate(-170.444 -37.973)" fill="#221e1f"/><path d="M170.28,39.254v-.993h0V37.9h0V37.81h9.044v0h.086v1.357h0v.087Zm8.957-.174v-1.1h-8.785v.278h0v.819Z" transform="translate(-170.28 -37.81)" fill="#221e1f"/></g></g><g transform="translate(63.902 0.642)"><g transform="translate(1.823 9.662)"><path d="M322.933,65.781h-7.967a1.193,1.193,0,0,1-.953-.41,1.77,1.77,0,0,1-.324-1.263V62.64H311.68v2.252c0,.607.145,2.4,2.685,2.416h8.567V65.784Z" transform="translate(-311.594 -62.553)" fill="#221e1f"/><path d="M322.769,67.228H314.2c-2.575,0-2.772-1.857-2.772-2.485h0v-.014h0V62.39h2.181V64h0a1.608,1.608,0,0,0,.3,1.145h0a1.114,1.114,0,0,0,.891.382h7.967v0h.086v1.7h-.086Zm-11.166-2.5v.01h0c.014.611.135,2.294,2.6,2.311h8.481V65.7H314.8a1.286,1.286,0,0,1-1.018-.437h0a1.771,1.771,0,0,1-.345-1.26h0v-.059h0V62.567H311.6v2.169h0Z" transform="translate(-311.43 -62.39)" fill="#221e1f"/></g><g transform="translate(1.584)"><path d="M316.613,34.8c-3.1,0-5.623.795-5.623,3.367s2.52,3.377,5.623,3.377,5.623-.618,5.623-3.377c0-2.53-2.52-3.367-5.623-3.367m0,5.251c-1.681,0-3.459-.316-3.459-1.885,0-1.478,1.778-1.878,3.459-1.878s3.462.4,3.462,1.878S318.294,40.051,316.613,40.051Z" transform="translate(-310.904 -34.713)" fill="#221e1f"/><path d="M310.74,38c.007-2.652,2.6-3.45,5.709-3.453h0v.174a8.981,8.981,0,0,0-3.935.708h0a2.7,2.7,0,0,0-1.6,2.572h0c.007,2.53,2.433,3.283,5.537,3.29h0c3.11-.007,5.533-.611,5.537-3.29h0a2.705,2.705,0,0,0-1.6-2.554h0a8.841,8.841,0,0,0-3.935-.725h0V34.55c3.107,0,5.7.847,5.709,3.453h0c0,2.836-2.609,3.46-5.709,3.464h0c-3.1,0-5.7-.774-5.709-3.464h0Zm2.164,0c.014-1.572,1.864-1.964,3.545-1.964h0c1.678,0,3.531.392,3.548,1.964h0c-.014,1.631-1.871,1.971-3.548,1.971h0V39.8a6.178,6.178,0,0,0,2.326-.361h0A1.5,1.5,0,0,0,319.825,38h0a1.5,1.5,0,0,0-1.049-1.413h0a6.1,6.1,0,0,0-2.326-.378h0a6.085,6.085,0,0,0-2.323.378h0A1.5,1.5,0,0,0,313.08,38h0a1.493,1.493,0,0,0,1.046,1.451h0a6.315,6.315,0,0,0,2.326.347h0v.174c-1.674,0-3.531-.309-3.545-1.971h0Z" transform="translate(-310.74 -34.55)" fill="#221e1f"/></g><g transform="translate(0 7.465)"><path d="M314.694,57.834h6.12V56.31H306.4v1.524h8.294Z" transform="translate(-306.314 -56.223)" fill="#221e1f"/><path d="M314.531,57.757v-.174h6.034v-1.35H306.323v1.35h8.208v.174H306.15v-1.7h14.587v1.7Z" transform="translate(-306.15 -56.06)" fill="#221e1f"/></g></g><g transform="translate(33.53 0.805)"><g transform="translate(0 0.135)"><path d="M223.777,37.5v-.292h3.138V35.66h-8.26v1.548h3.158V37.5c.021,6.334-3.341,6.907-3.4,6.92v1.829a7.218,7.218,0,0,0,4.377-3.79,7.241,7.241,0,0,0,4.373,3.79V44.4S223.753,43.9,223.777,37.5Z" transform="translate(-218.324 -35.573)" fill="#221e1f"/><path d="M226.976,46.169a7.362,7.362,0,0,1-4.353-3.658h0a7.338,7.338,0,0,1-4.356,3.658h0l-.107.028V44.184l.069-.014c.041-.021,3.321-.531,3.334-6.778h0v-.056h0v-.2h-3.158V35.41h8.433v1.635h0v.087H223.7v.2h0V37.4h0c0,3.151.842,4.835,1.671,5.73h0a3.067,3.067,0,0,0,1.64,1.013h0l.072.01v2.037l-.107-.028h0Zm-8.643-.2a7.175,7.175,0,0,0,4.211-3.707h0l.079-.2.079.2a7.167,7.167,0,0,0,4.208,3.707h0V44.305c-.5-.121-3.393-1.065-3.383-6.9h0v-.069h0v-.288h0v-.087h3.138V35.587h-8.087v1.371h3.158v.378h0v.056h0c.01,5.848-2.913,6.816-3.4,6.934h0v1.645h0Z" transform="translate(-218.16 -35.41)" fill="#221e1f"/></g><g transform="translate(8.843)"><path d="M244.03,40.049h2.033V35.27h1.988V49.427h-1.985c0-.33,0-7.83,0-7.83h-2.037V40.053Z" transform="translate(-243.944 -35.183)" fill="#221e1f"/><path d="M247.884,49.35h-2.071v-.087c0-.309,0-6.907,0-7.743H243.78V39.886h0V39.8h2.033V35.107h0V35.02h2.161V49.263h0v.087h-.086Zm-1.981-8h.086v.087s0,6.841,0,7.743H247.8V35.194h-1.816v4.692h0v.087h-2.033v1.374h1.95Z" transform="translate(-243.78 -35.02)" fill="#221e1f"/></g></g><g transform="translate(79.749 0.128)"><g transform="translate(1.978)"><rect width="4.277" height="1.315" transform="translate(0.086 0.087)" fill="#221e1f"/><path d="M357.79,34.559V33.07h4.449v1.489Zm4.363-.087v0Zm-4.19-.087h4.1V33.244h-4.1v1.142Z" transform="translate(-357.79 -33.07)" fill="#221e1f"/></g><g transform="translate(0.456 3.349)"><path d="M357.33,42.97c-2.192,0-3.7,1.263-3.7,2.822,0,1.364,1.5,2.818,3.7,2.818s3.7-1.492,3.7-2.818C361.027,44.233,359.595,42.97,357.33,42.97Zm-.014,4.432a1.768,1.768,0,0,1-1.85-1.666,1.885,1.885,0,0,1,3.714.01,1.771,1.771,0,0,1-1.867,1.655Z" transform="translate(-353.544 -42.883)" fill="#221e1f"/><path d="M353.38,45.628c0-1.621,1.567-2.9,3.787-2.908h0v.174c-2.161,0-3.611,1.239-3.614,2.735h0c0,1.3,1.45,2.728,3.614,2.731h0c2.2,0,3.607-1.472,3.611-2.731h0c0-1.5-1.377-2.731-3.611-2.735h0V42.72c2.292,0,3.783,1.291,3.783,2.908h0c0,1.388-1.508,2.9-3.783,2.9h0c-2.233,0-3.783-1.478-3.787-2.9Zm3.773,1.7a1.852,1.852,0,0,1-1.936-1.746h0v-.017h0a1.783,1.783,0,0,1,1.947-1.635h.014a1.777,1.777,0,0,1,1.926,1.638h0v.017a1.856,1.856,0,0,1-1.926,1.742h-.028Zm0-.087v0Zm0-.087h0a1.686,1.686,0,0,0,1.774-1.562h0v-.017h0a1.6,1.6,0,0,0-1.764-1.472h-.021a1.606,1.606,0,0,0-1.76,1.472h0v.007h0v0h0a1.682,1.682,0,0,0,1.747,1.569h.021Z" transform="translate(-353.38 -42.72)" fill="#221e1f"/></g><g transform="translate(0 1.645)"><path d="M360.626,38.06H352.3v1.274h8.326Z" transform="translate(-352.217 -37.973)" fill="#221e1f"/><path d="M352.06,39.257V37.9h0V37.81h8.412v0h.086v.764h0v.6h0v.087Zm8.326-.174v-1.1h-8.153v1.1h8.153Z" transform="translate(-352.06 -37.81)" fill="#221e1f"/></g><g transform="translate(5.05 8.191)"><path d="M370.986,56.91c-2.24,0-4.056,1.524-4.056,3.408s1.816,3.4,4.056,3.4,4.052-1.524,4.052-3.4-1.812-3.408-4.052-3.408m0,5.393a1.992,1.992,0,1,1,2.192-1.982A2.061,2.061,0,0,1,370.986,62.3Z" transform="translate(-366.847 -56.827)" fill="#221e1f"/><path d="M366.69,60.165c0-1.944,1.864-3.491,4.142-3.495h0v.174c-2.206,0-3.966,1.5-3.97,3.321h0c0,1.822,1.764,3.318,3.97,3.318h0c2.2,0,3.963-1.5,3.966-3.318h0c0-1.826-1.764-3.321-3.966-3.321h0V56.67c2.275,0,4.135,1.551,4.139,3.495h0c0,1.944-1.864,3.488-4.139,3.491h0c-2.278,0-4.139-1.548-4.142-3.491Zm1.861,0a2.146,2.146,0,0,1,2.278-2.068h0a2.148,2.148,0,0,1,2.278,2.068h0a2.149,2.149,0,0,1-2.278,2.068h0V62.06a1.978,1.978,0,0,0,2.106-1.895h0a1.97,1.97,0,0,0-2.106-1.895h0a1.97,1.97,0,0,0-2.106,1.895h0a1.974,1.974,0,0,0,2.106,1.895h0v.174a2.149,2.149,0,0,1-2.278-2.068Z" transform="translate(-366.69 -56.67)" fill="#221e1f"/></g><g transform="translate(8.985 0.659)"><path d="M380.9,35.23v2.756h-.956V35.23H378.34v7.254h1.605V39.433h.956v3.051h1.609V35.23Z" transform="translate(-378.254 -35.14)" fill="#221e1f"/><path d="M380.651,42.4V39.35h-.784V42.4H378.09V34.97h1.778v2.756h.784V34.97h1.781V42.4h-1.781Zm.173-3.221v3.047h1.436v-7.08h-1.436V37.9h-1.132V35.144h-1.432v7.08h1.432V39.176Zm-.086-4.033v0Z" transform="translate(-378.09 -34.97)" fill="#221e1f"/></g></g><g transform="translate(48.19 0.115)"><g transform="translate(2.116 10.481)"><path d="M277.134,65.687c0-.559-.138-2.2-2.544-2.207h-7.58v1.4h7.014a1.137,1.137,0,0,1,.9.375,1.589,1.589,0,0,1,.3,1.152v1.413h1.9V65.687Z" transform="translate(-266.924 -63.393)" fill="#221e1f"/><path d="M274.982,67.738v-1.5h0a1.5,1.5,0,0,0-.283-1.093h0a1.057,1.057,0,0,0-.839-.347h-7.1V63.23h7.666c2.43,0,2.63,1.69,2.63,2.277h0v.017h0v2.214Zm-8.049-3.11h6.928a1.222,1.222,0,0,1,.963.4h0a1.676,1.676,0,0,1,.328,1.211h0v1.326h1.729V65.51h0c-.014-.562-.131-2.082-2.458-2.1h-7.494v1.222h0Z" transform="translate(-266.76 -63.23)" fill="#221e1f"/></g><g transform="translate(0 8.038)"><path d="M275.143,56.44H260.88v1.451h6.041v1.236H268.9V57.891h6.241Z" transform="translate(-260.794 -56.353)" fill="#221e1f"/><path d="M266.67,59.05V57.818h-6.04V56.19h14.349v0h.086v1.628h-6.244V59.05h-2.154ZM260.8,57.644h6.04v1.232h1.809V57.644h6.241V56.364H260.8v1.281Z" transform="translate(-260.63 -56.19)" fill="#221e1f"/></g><g transform="translate(4.47)"><rect width="5.319" height="1.288" transform="translate(0.086 0.09)" fill="#221e1f"/><path d="M273.58,34.491V33.03h5.492v1.461Zm5.405-.087v0Zm-5.233-.087H278.9V33.2h-5.147v1.114Z" transform="translate(-273.58 -33.03)" fill="#221e1f"/></g><g transform="translate(1.622 1.867)"><path d="M275.78,42.9c-3.486-.913-3.676-2.933-3.666-4.227h-1.985c.007,1.281-.121,3.033-3.376,4.1a4.074,4.074,0,0,1-1.167.233l-.007,1.27c3.476-.014,5.25-1.881,5.516-2.409.269.528,2.023,2.409,5.5,2.457V43.046a3.3,3.3,0,0,1-.815-.149Z" transform="translate(-265.494 -38.58)" fill="#221e1f"/><path d="M276.431,44.237a6.8,6.8,0,0,1-5.5-2.377h0a6.778,6.778,0,0,1-5.516,2.329h-.086l.007-1.44h.083a4.058,4.058,0,0,0,1.143-.233h0c3.162-1.052,3.3-2.679,3.314-3.946h0V38.5h0V38.41h2.161v.09a.517.517,0,0,0,0,.076h0c.01,1.288.221,3.169,3.6,4.064h0l-.021.083.024-.083a3.159,3.159,0,0,0,.794.142h.083v1.451h-.086Zm-5.419-2.586c.245.486,1.954,2.336,5.336,2.409h0v-1.1a3.383,3.383,0,0,1-.756-.146h0c-3.441-.892-3.738-2.915-3.728-4.224h-1.809c.007,1.281-.224,3.054-3.434,4.1h0a4.178,4.178,0,0,1-1.111.233h0l-.007,1.1c3.383-.042,5.109-1.878,5.354-2.36h0l.076-.149.076.149h0Z" transform="translate(-265.33 -38.41)" fill="#221e1f"/></g><g transform="translate(1.729 1.739)"><rect width="10.8" height="1.274" transform="translate(0.086 0.087)" fill="#221e1f"/><path d="M265.64,39.487V38.04h10.97v1.447Zm.173-.174H276.44v-1.1H265.813v1.1Zm-.086-1.1v0Z" transform="translate(-265.64 -38.04)" fill="#221e1f"/></g></g></g></svg>