<svg xmlns="http://www.w3.org/2000/svg" xmlns:xlink="http://www.w3.org/1999/xlink" width="56" height="56" viewBox="0 0 56 56"><defs><clipPath id="a"><rect width="37.534" height="27.567" fill="#fff"/></clipPath></defs><g transform="translate(-191 -799)"><path d="M0,28C0,16.764,0,11.146,2.7,7.111A16,16,0,0,1,7.111,2.7C11.146,0,16.764,0,28,0h0C39.236,0,44.854,0,48.889,2.7A16,16,0,0,1,53.3,7.111C56,11.146,56,16.764,56,28h0c0,11.236,0,16.854-2.7,20.889A16,16,0,0,1,48.889,53.3C44.854,56,39.236,56,28,56h0c-11.236,0-16.854,0-20.889-2.7A16,16,0,0,1,2.7,48.889C0,44.854,0,39.236,0,28Z" transform="translate(191 799)" fill="#009c9c"/><g transform="translate(200.15 808.15)"><rect width="38" height="38" transform="translate(-0.15 -0.15)" fill="none"/><g transform="translate(0.232 3.37)"><g clip-path="url(#a)"><path d="M31.482,39.852a6.08,6.08,0,0,0-6.12-6.161H6.462a6.161,6.161,0,0,0,0,12.322H9.483a3.08,3.08,0,1,1,0,6.161H2.854L1.63,52.165a1.63,1.63,0,1,0,0,3.26H9.915a6.246,6.246,0,0,0,0-12.493H6.98a3.08,3.08,0,1,1,0-6.161h9.709c.851,0,1.184.689,1.184,1.54V53.885a1.54,1.54,0,0,0,1.54,1.54h7.905a6.271,6.271,0,0,0,6.118-6.332,5.48,5.48,0,0,0-3.288-5.413,6.208,6.208,0,0,0,1.334-3.828m-10.529-3.08h3.89a3.081,3.081,0,0,1,0,6.161h-3.89Zm5.8,15.4h-5.8V46.013h5.8a3.08,3.08,0,1,1,0,6.161" transform="translate(0 -27.858)" fill="#fff"/><path d="M173.245,17.617h-.736a.985.985,0,0,1-.985-.984v-.027a.985.985,0,0,1,.985-.985h.736a.984.984,0,0,1,.985.985v.027a.984.984,0,0,1-.985.984" transform="translate(-141.827 -12.916)" fill="#fff"/><path d="M202.88,17.617h-.736a.985.985,0,0,1-.985-.984v-.027a.985.985,0,0,1,.985-.985h.736a.984.984,0,0,1,.984.985v.027a.984.984,0,0,1-.984.984" transform="translate(-166.331 -12.916)" fill="#fff"/><path d="M188.443,28.868v-.736a.985.985,0,0,1,.984-.985h.027a.985.985,0,0,1,.985.985v.736a.985.985,0,0,1-.985.984h-.027a.984.984,0,0,1-.984-.984" transform="translate(-155.815 -22.448)" fill="#fff"/><path d="M188.443,1.72V.985A.985.985,0,0,1,189.428,0h.027a.985.985,0,0,1,.985.985V1.72a.985.985,0,0,1-.985.985h-.027a.985.985,0,0,1-.984-.985" transform="translate(-155.815)" fill="#fff"/></g></g></g></g></svg>