<svg xmlns="http://www.w3.org/2000/svg" width="24" height="24" viewBox="0 0 24 24"><rect width="24" height="24" fill="none" opacity="0.5"/><path d="M13.945,14.06a1.194,1.194,0,0,1-1.19,1.19H2.44a1.194,1.194,0,0,1-1.19-1.19V6.876a2.541,2.541,0,0,1,.981-1.865L6.616,1.529a1.867,1.867,0,0,1,1.962,0l4.386,3.482a2.54,2.54,0,0,1,.981,1.865V14.06Z" transform="translate(4.402 3.75)" fill="none" stroke="#fff" stroke-linecap="round" stroke-linejoin="round" stroke-width="1.5"/><path d="M14.487,24.965H10.738V20.293a.8.8,0,0,1,.8-.8h2.144a.8.8,0,0,1,.8.8Z" transform="translate(-0.651 -5.965)" fill="none" stroke="#fff" stroke-linecap="round" stroke-linejoin="round" stroke-width="1.5"/></svg>