<svg xmlns="http://www.w3.org/2000/svg" xmlns:xlink="http://www.w3.org/1999/xlink" width="40" height="40" viewBox="0 0 40 40"><defs><clipPath id="a"><path d="M1410.179,99.748a6.419,6.419,0,1,0,6.419-6.419,6.419,6.419,0,0,0-6.419,6.419" transform="translate(-1410.179 -93.329)" fill="none"/></clipPath><clipPath id="b"><rect width="23.081" height="22.412" fill="none"/></clipPath></defs><g transform="translate(21359.672 153.672)"><rect width="40" height="40" transform="translate(-21359.672 -153.672)" fill="none"/><g transform="translate(-21351.143 -146.939)"><g transform="translate(5.121 13.946)"><g transform="translate(0)" clip-path="url(#a)"><rect width="18.117" height="18.117" transform="translate(-6.365 7.248) rotate(-48.712)" fill="#ffb674"/></g></g><g transform="translate(0 0)" opacity="0.6"><g transform="translate(0 0)"><g clip-path="url(#b)"><path d="M1397.6,39.914a3.3,3.3,0,1,1,5.752,2.2,8.35,8.35,0,0,1,6.455,7.209l.568,5.058a3.151,3.151,0,0,1,.022.369h.271a1.765,1.765,0,0,1,.256,3.513,65.837,65.837,0,0,1-20.046-.006,1.762,1.762,0,0,1,.246-3.507h.276c0-.122.007-.245.02-.369l.57-5.058a8.351,8.351,0,0,1,6.453-7.209,3.3,3.3,0,0,1-.841-2.2" transform="translate(-1389.352 -36.617)" fill="#ff8900" fill-rule="evenodd"/></g></g></g></g></g></svg>