<svg xmlns="http://www.w3.org/2000/svg" width="18.644" height="15.254" viewBox="0 0 18.644 15.254"><path d="M481,463.847a.848.848,0,0,1,.847-.847h1.695a.847.847,0,0,1,0,1.695h-1.695A.848.848,0,0,1,481,463.847Z" transform="translate(-477.609 -452.831)" fill="#888"/><path d="M486.847,463a.847.847,0,0,0,0,1.695h.847a.847.847,0,0,0,0-1.695Z" transform="translate(-478.373 -452.831)" fill="#888"/><path d="M481.905,451c-.694,0-1.266,0-1.732.039a3.466,3.466,0,0,0-1.346.342,3.4,3.4,0,0,0-1.446,1.446,3.466,3.466,0,0,0-.342,1.346c-.039.466-.039,1.038-.039,1.732v5.444c0,.694,0,1.266.039,1.732a3.466,3.466,0,0,0,.342,1.346,3.4,3.4,0,0,0,1.446,1.446,3.468,3.468,0,0,0,1.346.342c.466.039,1.038.039,1.732.039h8.834c.694,0,1.266,0,1.732-.039a3.468,3.468,0,0,0,1.346-.342,3.4,3.4,0,0,0,1.446-1.446,3.467,3.467,0,0,0,.342-1.346c.039-.466.039-1.038.039-1.732v-5.444c0-.694,0-1.266-.039-1.732a3.467,3.467,0,0,0-.342-1.346,3.4,3.4,0,0,0-1.446-1.446,3.465,3.465,0,0,0-1.346-.342C492,451,491.433,451,490.739,451Zm-2.3,1.886a1.836,1.836,0,0,1,.7-.158c.388-.032.89-.033,1.628-.033H490.7c.738,0,1.24,0,1.628.033a1.834,1.834,0,0,1,.7.158,1.7,1.7,0,0,1,.723.723,1.835,1.835,0,0,1,.158.7c.021.25.029.547.031.925H478.7c0-.377.01-.675.031-.925a1.833,1.833,0,0,1,.158-.7A1.7,1.7,0,0,1,479.608,452.886Zm-.914,4.047v4.381c0,.738,0,1.24.033,1.628a1.833,1.833,0,0,0,.158.7,1.7,1.7,0,0,0,.723.723,1.834,1.834,0,0,0,.7.158c.388.032.89.033,1.628.033H490.7c.738,0,1.24,0,1.628-.033a1.832,1.832,0,0,0,.7-.158,1.7,1.7,0,0,0,.723-.723,1.834,1.834,0,0,0,.158-.7c.032-.388.033-.89.033-1.628v-4.381Z" transform="translate(-477 -451)" fill="#888" fill-rule="evenodd"/></svg>